<svg width="250" height="250" viewBox="0 0 250 250" fill="none" xmlns="http://www.w3.org/2000/svg">
<mask id="path-1-inside-1" fill="white">
<path fill-rule="evenodd" clip-rule="evenodd" d="M125 250C194.023 250 250 194.023 250 125C250 55.9766 194.023 0 125 0C55.9766 0 0 55.9766 0 125C0 194.023 55.9766 250 125 250ZM90.8492 163.579C81.3501 154.081 71.8506 144.582 62.3523 135.082C56.6595 129.389 56.5085 119.868 62.1517 114.173L62.3385 113.986C76.5341 99.7906 90.7296 85.5951 104.928 71.3995C118.48 57.8448 139.49 78.7042 125.988 92.2068C120.141 98.0506 114.298 103.894 108.454 109.741H177.326C196.423 109.741 196.219 139.366 177.126 139.366H108.503L125.936 156.798C139.49 170.35 118.631 191.36 105.128 177.858C100.369 173.098 95.6091 168.339 90.8492 163.579Z"/>
</mask>
<path fill-rule="evenodd" clip-rule="evenodd" d="M125 250C194.023 250 250 194.023 250 125C250 55.9766 194.023 0 125 0C55.9766 0 0 55.9766 0 125C0 194.023 55.9766 250 125 250ZM90.8492 163.579C81.3501 154.081 71.8506 144.582 62.3523 135.082C56.6595 129.389 56.5085 119.868 62.1517 114.173L62.3385 113.986C76.5341 99.7906 90.7296 85.5951 104.928 71.3995C118.48 57.8448 139.49 78.7042 125.988 92.2068C120.141 98.0506 114.298 103.894 108.454 109.741H177.326C196.423 109.741 196.219 139.366 177.126 139.366H108.503L125.936 156.798C139.49 170.35 118.631 191.36 105.128 177.858C100.369 173.098 95.6091 168.339 90.8492 163.579Z" fill="#545454"/>
<path d="M62.3523 135.082L63.7666 133.668L63.7665 133.668L62.3523 135.082ZM90.8492 163.579L92.2634 162.165L92.2634 162.165L90.8492 163.579ZM62.1517 114.173L60.7375 112.759L60.731 112.765L62.1517 114.173ZM62.3385 113.986L60.9243 112.572L60.9243 112.572L62.3385 113.986ZM104.928 71.3995L106.342 72.8139L106.342 72.8136L104.928 71.3995ZM125.988 92.2068L127.402 93.6213L127.402 93.621L125.988 92.2068ZM108.454 109.741L107.039 108.327C106.467 108.899 106.297 109.759 106.606 110.506C106.916 111.253 107.645 111.741 108.454 111.741V109.741ZM108.503 139.366V137.366C107.694 137.366 106.965 137.853 106.656 138.6C106.346 139.348 106.517 140.208 107.089 140.78L108.503 139.366ZM125.936 156.798L124.521 158.212L124.522 158.212L125.936 156.798ZM105.128 177.858L106.543 176.444L106.543 176.444L105.128 177.858ZM248 125C248 192.919 192.919 248 125 248V252C195.128 252 252 195.128 252 125H248ZM125 2C192.919 2 248 57.0811 248 125H252C252 54.872 195.128 -2 125 -2V2ZM2 125C2 57.0811 57.0811 2 125 2V-2C54.872 -2 -2 54.872 -2 125H2ZM125 248C57.0811 248 2 192.919 2 125H-2C-2 195.128 54.872 252 125 252V248ZM60.9379 136.496C70.4364 145.996 79.9359 155.495 89.4351 164.994L92.2634 162.165C82.7643 152.667 73.2648 143.168 63.7666 133.668L60.9379 136.496ZM60.731 112.765C54.2885 119.267 54.4916 130.05 60.938 136.496L63.7665 133.668C58.8275 128.729 58.7285 120.469 63.5724 115.581L60.731 112.765ZM60.9243 112.572L60.7375 112.759L63.566 115.587L63.7528 115.4L60.9243 112.572ZM103.514 69.9852C89.3155 84.1808 75.1199 98.3764 60.9243 112.572L63.7527 115.4C77.9483 101.205 92.1438 87.0093 106.342 72.8139L103.514 69.9852ZM127.402 93.621C131.178 89.8449 132.623 85.4413 132.293 81.1984C131.968 77.0108 129.931 73.1279 127.011 70.2357C124.09 67.3431 120.182 65.3374 115.976 65.0385C111.717 64.7358 107.3 66.1983 103.513 69.9855L106.342 72.8136C109.332 69.8234 112.623 68.8103 115.693 69.0284C118.816 69.2504 121.858 70.7619 124.196 73.0777C126.534 75.3938 128.065 78.4104 128.305 81.5079C128.541 84.5502 127.549 87.8174 124.573 90.7926L127.402 93.621ZM109.868 111.155C115.712 105.308 121.555 99.4649 127.402 93.6213L124.574 90.7923C118.727 96.6362 112.883 102.48 107.039 108.327L109.868 111.155ZM177.326 107.741H108.454V111.741H177.326V107.741ZM177.126 141.366C182.466 141.366 186.615 139.272 189.409 136.046C192.169 132.861 193.519 128.678 193.547 124.567C193.575 120.456 192.282 116.266 189.558 113.072C186.798 109.835 182.667 107.741 177.326 107.741V111.741C181.533 111.741 184.538 113.35 186.514 115.667C188.527 118.028 189.57 121.244 189.547 124.54C189.525 127.834 188.438 131.058 186.386 133.427C184.369 135.756 181.333 137.366 177.126 137.366V141.366ZM108.503 141.366H177.126V137.366H108.503V141.366ZM127.35 155.384L109.918 137.951L107.089 140.78L124.521 158.212L127.35 155.384ZM103.714 179.272C107.49 183.048 111.894 184.493 116.137 184.163C120.324 183.838 124.207 181.801 127.099 178.881C129.992 175.96 131.998 172.052 132.297 167.846C132.599 163.587 131.137 159.17 127.35 155.384L124.522 158.212C127.512 161.202 128.525 164.493 128.307 167.563C128.085 170.687 126.573 173.728 124.257 176.066C121.941 178.405 118.925 179.935 115.827 180.175C112.785 180.412 109.518 179.419 106.543 176.444L103.714 179.272ZM89.4351 164.994C94.1949 169.753 98.9546 174.513 103.714 179.272L106.543 176.444C101.783 171.684 97.0232 166.925 92.2634 162.165L89.4351 164.994Z" fill="black" mask="url(#path-1-inside-1)"/>
</svg>
