<svg width="250" height="250" viewBox="0 0 250 250" fill="none" xmlns="http://www.w3.org/2000/svg">
<mask id="path-1-inside-1" fill="white">
<path fill-rule="evenodd" clip-rule="evenodd" d="M125 0C55.9766 0 0 55.9766 0 125C0 194.023 55.9766 250 125 250C194.023 250 250 194.023 250 125C250 55.9766 194.023 0 125 0ZM158.733 85.6643C168.221 95.1512 177.709 104.639 187.195 114.127C192.888 119.82 193.039 129.34 187.396 135.036C173.138 149.294 158.88 163.551 144.62 177.809C131.068 191.364 110.057 170.505 123.56 157.002C127.452 153.112 131.343 149.22 135.233 145.329C137.187 143.375 139.14 141.422 141.094 139.468H72.2214C53.1251 139.468 53.3282 109.843 72.422 109.843H141.044L123.612 92.4108C110.057 78.8587 130.917 57.8483 144.419 71.3509C149.19 76.122 153.962 80.8931 158.733 85.6643Z"/>
</mask>
<path fill-rule="evenodd" clip-rule="evenodd" d="M125 0C55.9766 0 0 55.9766 0 125C0 194.023 55.9766 250 125 250C194.023 250 250 194.023 250 125C250 55.9766 194.023 0 125 0ZM158.733 85.6643C168.221 95.1512 177.709 104.639 187.195 114.127C192.888 119.82 193.039 129.34 187.396 135.036C173.138 149.294 158.88 163.551 144.62 177.809C131.068 191.364 110.057 170.505 123.56 157.002C127.452 153.112 131.343 149.22 135.233 145.329C137.187 143.375 139.14 141.422 141.094 139.468H72.2214C53.1251 139.468 53.3282 109.843 72.422 109.843H141.044L123.612 92.4108C110.057 78.8587 130.917 57.8483 144.419 71.3509C149.19 76.122 153.962 80.8931 158.733 85.6643Z" fill="#545454"/>
<path d="M187.195 114.127L185.781 115.541L185.781 115.541L187.195 114.127ZM158.733 85.6643L160.148 84.2501L160.148 84.2501L158.733 85.6643ZM187.396 135.036L188.81 136.45L188.817 136.443L187.396 135.036ZM144.62 177.809L143.206 176.395L143.206 176.395L144.62 177.809ZM123.56 157.002L122.146 155.587L122.146 155.588L123.56 157.002ZM135.233 145.329L133.819 143.915L133.819 143.915L135.233 145.329ZM141.094 139.468L142.508 140.882C143.08 140.31 143.251 139.45 142.942 138.703C142.632 137.955 141.903 137.468 141.094 137.468V139.468ZM141.044 109.843V111.843C141.853 111.843 142.583 111.356 142.892 110.608C143.202 109.861 143.031 109.001 142.459 108.429L141.044 109.843ZM123.612 92.4108L125.026 90.9966L125.026 90.9964L123.612 92.4108ZM144.419 71.3509L145.834 69.9367L145.834 69.9367L144.419 71.3509ZM2 125C2 57.0811 57.0811 2 125 2V-2C54.872 -2 -2 54.872 -2 125H2ZM125 248C57.0811 248 2 192.919 2 125H-2C-2 195.128 54.872 252 125 252V248ZM248 125C248 192.919 192.919 248 125 248V252C195.128 252 252 195.128 252 125H248ZM125 2C192.919 2 248 57.0811 248 125H252C252 54.872 195.128 -2 125 -2V2ZM188.61 112.713C179.123 103.224 169.635 93.737 160.148 84.2501L157.319 87.0786C166.807 96.5655 176.294 106.053 185.781 115.541L188.61 112.713ZM188.817 136.443C195.259 129.941 195.056 119.159 188.61 112.713L185.781 115.541C190.72 120.48 190.819 128.739 185.975 133.628L188.817 136.443ZM146.034 179.224C160.294 164.966 174.552 150.708 188.81 136.45L185.982 133.622C171.724 147.879 157.466 162.137 143.206 176.395L146.034 179.224ZM122.146 155.588C118.37 159.364 116.925 163.767 117.254 168.01C117.579 172.198 119.617 176.081 122.537 178.973C125.458 181.866 129.366 183.871 133.571 184.17C137.83 184.473 142.248 183.01 146.034 179.223L143.206 176.395C140.216 179.385 136.925 180.398 133.855 180.18C130.731 179.958 127.69 178.447 125.352 176.131C123.013 173.815 121.483 170.798 121.242 167.701C121.006 164.659 121.999 161.391 124.974 158.416L122.146 155.588ZM133.819 143.915C129.928 147.806 126.038 151.697 122.146 155.587L124.974 158.416C128.866 154.526 132.757 150.634 136.647 146.743L133.819 143.915ZM139.68 138.054C137.726 140.007 135.772 141.961 133.819 143.915L136.647 146.743C138.601 144.79 140.555 142.836 142.508 140.882L139.68 138.054ZM72.2214 141.468H141.094V137.468H72.2214V141.468ZM72.422 107.843C67.0821 107.843 62.9329 109.936 60.1383 113.163C57.379 116.348 56.0285 120.53 56.0004 124.642C55.9724 128.753 57.2659 132.942 59.9895 136.137C62.7495 139.374 66.8803 141.468 72.2214 141.468V137.468C68.0144 137.468 65.0094 135.859 63.0333 133.542C61.0208 131.181 59.9779 127.964 60.0004 124.669C60.0228 121.375 61.1096 118.151 63.1618 115.781C65.1786 113.453 68.2149 111.843 72.422 111.843V107.843ZM141.044 107.843H72.422V111.843H141.044V107.843ZM122.198 93.825L139.63 111.257L142.459 108.429L125.026 90.9966L122.198 93.825ZM145.834 69.9367C142.057 66.1606 137.654 64.7161 133.411 65.0453C129.223 65.3703 125.34 67.4077 122.448 70.328C119.556 73.2485 117.55 77.1569 117.251 81.3623C116.948 85.6214 118.411 90.0387 122.198 93.8251L125.026 90.9964C122.036 88.0068 121.023 84.7158 121.241 81.6459C121.463 78.5222 122.974 75.4809 125.29 73.1427C127.606 70.8042 130.623 69.2737 133.72 69.0333C136.763 68.7972 140.03 69.7899 143.005 72.7651L145.834 69.9367ZM160.148 84.2501C155.376 79.4789 150.605 74.7078 145.834 69.9367L143.005 72.7651C147.776 77.5362 152.548 82.3074 157.319 87.0786L160.148 84.2501Z" fill="black" mask="url(#path-1-inside-1)"/>
</svg>
