<svg width="250" height="250" viewBox="0 0 250 250" fill="none" xmlns="http://www.w3.org/2000/svg">
<g clip-path="url(#clip0)">
<mask id="path-1-inside-1" fill="white">
<path fill-rule="evenodd" clip-rule="evenodd" d="M0 124.997C0 56.0716 56.073 0 125 0C193.927 0 250 56.0716 250 124.997C250 193.923 193.927 250 125 250C56.073 250 0 193.923 0 124.997ZM73 146.167L156.333 42L135.5 104.5H177.167L93.8333 208.667L114.667 146.167H73Z"/>
</mask>
<path fill-rule="evenodd" clip-rule="evenodd" d="M0 124.997C0 56.0716 56.073 0 125 0C193.927 0 250 56.0716 250 124.997C250 193.923 193.927 250 125 250C56.073 250 0 193.923 0 124.997ZM73 146.167L156.333 42L135.5 104.5H177.167L93.8333 208.667L114.667 146.167H73Z" fill="#545454"/>
<path d="M156.333 42L158.231 42.6325C158.537 41.7131 158.14 40.7063 157.289 40.2432C156.438 39.78 155.377 39.9939 154.772 40.7506L156.333 42ZM73 146.167L71.4383 144.917C70.958 145.518 70.8644 146.34 71.1974 147.033C71.5304 147.726 72.2312 148.167 73 148.167V146.167ZM135.5 104.5L133.603 103.868C133.399 104.477 133.502 105.148 133.878 105.669C134.253 106.191 134.857 106.5 135.5 106.5V104.5ZM177.167 104.5L178.728 105.749C179.209 105.149 179.302 104.327 178.969 103.634C178.636 102.941 177.935 102.5 177.167 102.5V104.5ZM93.8333 208.667L91.936 208.034C91.6295 208.954 92.0263 209.96 92.8776 210.424C93.7289 210.887 94.7897 210.673 95.3951 209.916L93.8333 208.667ZM114.667 146.167L116.564 146.799C116.767 146.189 116.665 145.519 116.289 144.997C115.913 144.476 115.31 144.167 114.667 144.167V146.167ZM125 -2C54.9685 -2 -2 54.967 -2 124.997H2C2 57.1762 57.1775 2 125 2V-2ZM252 124.997C252 54.967 195.032 -2 125 -2V2C192.822 2 248 57.1762 248 124.997H252ZM125 252C195.032 252 252 195.028 252 124.997H248C248 192.819 192.822 248 125 248V252ZM-2 124.997C-2 195.028 54.9684 252 125 252V248C57.1777 248 2 192.819 2 124.997H-2ZM154.772 40.7506L71.4383 144.917L74.5617 147.416L157.895 43.2494L154.772 40.7506ZM137.397 105.132L158.231 42.6325L154.436 41.3675L133.603 103.868L137.397 105.132ZM177.167 102.5H135.5V106.5H177.167V102.5ZM95.3951 209.916L178.728 105.749L175.605 103.251L92.2716 207.417L95.3951 209.916ZM112.769 145.534L91.936 208.034L95.7307 209.299L116.564 146.799L112.769 145.534ZM73 148.167H114.667V144.167H73V148.167Z" fill="black" mask="url(#path-1-inside-1)"/>
</g>
<defs>
<clipPath id="clip0">
<rect width="250" height="250" fill="white"/>
</clipPath>
</defs>
</svg>
