<svg width="250" height="250" viewBox="0 0 250 250" fill="none" xmlns="http://www.w3.org/2000/svg">
<mask id="path-1-inside-1" fill="white">
<path fill-rule="evenodd" clip-rule="evenodd" d="M250 125C250 55.9766 194.023 0 125 0C55.9766 0 0 55.9766 0 125C0 194.023 55.9766 250 125 250C194.023 250 250 194.023 250 125ZM163.545 158.733C154.058 168.221 144.57 177.709 135.082 187.195C129.389 192.888 119.868 193.039 114.173 187.396C99.9152 173.138 85.6574 158.88 71.3996 144.62C57.8449 131.068 78.7043 110.057 92.2069 123.56C98.0506 129.406 103.894 135.25 109.741 141.094V72.2214C109.741 53.125 139.366 53.3281 139.366 72.4219V141.044L156.798 123.612C170.35 110.057 191.36 130.917 177.858 144.419C173.087 149.19 168.316 153.962 163.545 158.733Z"/>
</mask>
<path fill-rule="evenodd" clip-rule="evenodd" d="M250 125C250 55.9766 194.023 0 125 0C55.9766 0 0 55.9766 0 125C0 194.023 55.9766 250 125 250C194.023 250 250 194.023 250 125ZM163.545 158.733C154.058 168.221 144.57 177.709 135.082 187.195C129.389 192.888 119.868 193.039 114.173 187.396C99.9152 173.138 85.6574 158.88 71.3996 144.62C57.8449 131.068 78.7043 110.057 92.2069 123.56C98.0506 129.406 103.894 135.25 109.741 141.094V72.2214C109.741 53.125 139.366 53.3281 139.366 72.4219V141.044L156.798 123.612C170.35 110.057 191.36 130.917 177.858 144.419C173.087 149.19 168.316 153.962 163.545 158.733Z" fill="#545454"/>
<path d="M135.082 187.195L133.668 185.781L133.668 185.781L135.082 187.195ZM163.545 158.733L162.131 157.319L162.131 157.319L163.545 158.733ZM114.173 187.396L112.759 188.81L112.765 188.817L114.173 187.396ZM71.3996 144.62L72.8139 143.206L72.8137 143.205L71.3996 144.62ZM92.2069 123.56L93.6214 122.146L93.6211 122.146L92.2069 123.56ZM109.741 141.094L108.327 142.508C108.899 143.08 109.759 143.251 110.506 142.941C111.254 142.632 111.741 141.903 111.741 141.094H109.741ZM139.366 141.044H137.366C137.366 141.853 137.853 142.582 138.6 142.892C139.348 143.202 140.208 143.03 140.78 142.458L139.366 141.044ZM156.798 123.612L158.212 125.026L158.212 125.026L156.798 123.612ZM125 2C192.919 2 248 57.0811 248 125H252C252 54.872 195.128 -2 125 -2V2ZM2 125C2 57.0811 57.0811 2 125 2V-2C54.872 -2 -2 54.872 -2 125H2ZM125 248C57.0811 248 2 192.919 2 125H-2C-2 195.128 54.872 252 125 252V248ZM248 125C248 192.919 192.919 248 125 248V252C195.128 252 252 195.128 252 125H248ZM136.496 188.61C145.985 179.123 155.472 169.635 164.959 160.147L162.131 157.319C152.644 166.806 143.156 176.294 133.668 185.781L136.496 188.61ZM112.765 188.817C119.267 195.259 130.05 195.056 136.496 188.61L133.668 185.781C128.729 190.72 120.469 190.819 115.581 185.975L112.765 188.817ZM69.9852 146.034C84.2431 160.294 98.501 174.552 112.759 188.81L115.587 185.982C101.329 171.724 87.0717 157.466 72.8139 143.206L69.9852 146.034ZM93.6211 122.146C89.845 118.37 85.4413 116.925 81.1984 117.254C77.0108 117.579 73.128 119.617 70.2357 122.537C67.3432 125.458 65.3374 129.366 65.0386 133.571C64.7359 137.83 66.1984 142.248 69.9855 146.034L72.8137 143.205C69.8234 140.216 68.8103 136.925 69.0285 133.855C69.2505 130.731 70.762 127.69 73.0778 125.352C75.3938 123.013 78.4104 121.483 81.5079 121.242C84.5502 121.006 87.8174 121.999 90.7926 124.974L93.6211 122.146ZM111.155 139.679C105.308 133.836 99.4649 127.992 93.6214 122.146L90.7923 124.974C96.6363 130.82 102.48 136.664 108.327 142.508L111.155 139.679ZM107.741 72.2214V141.094H111.741V72.2214H107.741ZM141.366 72.4219C141.366 67.082 139.273 62.9328 136.046 60.1382C132.861 57.3789 128.678 56.0284 124.567 56.0004C120.456 55.9724 116.266 57.2659 113.072 59.9895C109.835 62.7494 107.741 66.8803 107.741 72.2214H111.741C111.741 68.0143 113.35 65.0094 115.667 63.0333C118.028 61.0207 121.244 59.9778 124.54 60.0003C127.834 60.0227 131.058 61.1095 133.427 63.1617C135.756 65.1786 137.366 68.2148 137.366 72.4219H141.366ZM141.366 141.044V72.4219H137.366V141.044H141.366ZM155.384 122.198L137.951 139.63L140.78 142.458L158.212 125.026L155.384 122.198ZM179.272 145.833C183.048 142.057 184.493 137.654 184.163 133.411C183.838 129.223 181.801 125.34 178.881 122.448C175.96 119.556 172.052 117.55 167.846 117.251C163.587 116.948 159.17 118.411 155.384 122.198L158.212 125.026C161.202 122.036 164.493 121.023 167.563 121.241C170.687 121.463 173.728 122.974 176.066 125.29C178.405 127.606 179.935 130.623 180.175 133.72C180.412 136.763 179.419 140.03 176.444 143.005L179.272 145.833ZM164.959 160.147C169.73 155.376 174.501 150.604 179.272 145.833L176.444 143.005C171.673 147.776 166.902 152.547 162.131 157.319L164.959 160.147Z" fill="black" mask="url(#path-1-inside-1)"/>
</svg>
