<svg width="250" height="250" viewBox="0 0 250 250" fill="none" xmlns="http://www.w3.org/2000/svg">
<g clip-path="url(#clip0)">
<mask id="path-1-inside-1" fill="white">
<path fill-rule="evenodd" clip-rule="evenodd" d="M0 124.997C0 56.0716 56.073 0 125 0C193.927 0 250 56.0716 250 124.997C250 193.923 193.927 250 125 250C56.073 250 0 193.923 0 124.997ZM173.117 100.988H76.8859C71.2156 100.988 66.6028 96.3747 66.6028 90.7095C66.6028 85.039 71.2156 80.4235 76.8859 80.4235H173.117C178.787 80.4235 183.4 85.039 183.4 90.7095C183.4 96.3747 178.787 100.988 173.117 100.988ZM173.117 114.714H76.8859C71.2156 114.714 66.6028 119.327 66.6028 124.998C66.6028 130.668 71.2156 135.281 76.8859 135.281H173.117C178.787 135.281 183.4 130.668 183.4 124.998C183.4 119.327 178.787 114.714 173.117 114.714ZM76.8859 149.008H173.117C178.787 149.008 183.4 153.62 183.4 159.286C183.4 164.956 178.787 169.572 173.117 169.572H76.8859C71.2156 169.572 66.6028 164.956 66.6028 159.286C66.6028 153.62 71.2156 149.008 76.8859 149.008Z"/>
</mask>
<path fill-rule="evenodd" clip-rule="evenodd" d="M0 124.997C0 56.0716 56.073 0 125 0C193.927 0 250 56.0716 250 124.997C250 193.923 193.927 250 125 250C56.073 250 0 193.923 0 124.997ZM173.117 100.988H76.8859C71.2156 100.988 66.6028 96.3747 66.6028 90.7095C66.6028 85.039 71.2156 80.4235 76.8859 80.4235H173.117C178.787 80.4235 183.4 85.039 183.4 90.7095C183.4 96.3747 178.787 100.988 173.117 100.988ZM173.117 114.714H76.8859C71.2156 114.714 66.6028 119.327 66.6028 124.998C66.6028 130.668 71.2156 135.281 76.8859 135.281H173.117C178.787 135.281 183.4 130.668 183.4 124.998C183.4 119.327 178.787 114.714 173.117 114.714ZM76.8859 149.008H173.117C178.787 149.008 183.4 153.62 183.4 159.286C183.4 164.956 178.787 169.572 173.117 169.572H76.8859C71.2156 169.572 66.6028 164.956 66.6028 159.286C66.6028 153.62 71.2156 149.008 76.8859 149.008Z" fill="#545454"/>
<path d="M125 -2C54.9685 -2 -2 54.967 -2 124.997H2C2 57.1762 57.1775 2 125 2V-2ZM252 124.997C252 54.967 195.032 -2 125 -2V2C192.822 2 248 57.1762 248 124.997H252ZM125 252C195.032 252 252 195.028 252 124.997H248C248 192.819 192.822 248 125 248V252ZM-2 124.997C-2 195.028 54.9684 252 125 252V248C57.1777 248 2 192.819 2 124.997H-2ZM76.8859 102.988H173.117V98.9877H76.8859V102.988ZM64.6028 90.7095C64.6028 97.4799 70.1116 102.988 76.8859 102.988V98.9877C72.3196 98.9877 68.6028 95.2696 68.6028 90.7095H64.6028ZM76.8859 78.4235C70.1103 78.4235 64.6028 83.9352 64.6028 90.7095H68.6028C68.6028 86.1429 72.3209 82.4235 76.8859 82.4235V78.4235ZM173.117 78.4235H76.8859V82.4235H173.117V78.4235ZM185.4 90.7095C185.4 83.9352 179.892 78.4235 173.117 78.4235V82.4235C177.682 82.4235 181.4 86.1429 181.4 90.7095H185.4ZM173.117 102.988C179.891 102.988 185.4 97.4799 185.4 90.7095H181.4C181.4 95.2696 177.683 98.9877 173.117 98.9877V102.988ZM76.8859 116.714H173.117V112.714H76.8859V116.714ZM68.6028 124.998C68.6028 120.432 72.3202 116.714 76.8859 116.714V112.714C70.111 112.714 64.6028 118.223 64.6028 124.998H68.6028ZM76.8859 133.281C72.3202 133.281 68.6028 129.564 68.6028 124.998H64.6028C64.6028 131.773 70.111 137.281 76.8859 137.281V133.281ZM173.117 133.281H76.8859V137.281H173.117V133.281ZM181.4 124.998C181.4 129.564 177.682 133.281 173.117 133.281V137.281C179.892 137.281 185.4 131.773 185.4 124.998H181.4ZM173.117 116.714C177.682 116.714 181.4 120.432 181.4 124.998H185.4C185.4 118.223 179.892 112.714 173.117 112.714V116.714ZM173.117 147.008H76.8859V151.008H173.117V147.008ZM185.4 159.286C185.4 152.515 179.891 147.008 173.117 147.008V151.008C177.683 151.008 181.4 154.726 181.4 159.286H185.4ZM173.117 171.572C179.892 171.572 185.4 166.06 185.4 159.286H181.4C181.4 163.852 177.682 167.572 173.117 167.572V171.572ZM76.8859 171.572H173.117V167.572H76.8859V171.572ZM64.6028 159.286C64.6028 166.06 70.1103 171.572 76.8859 171.572V167.572C72.3209 167.572 68.6028 163.852 68.6028 159.286H64.6028ZM76.8859 147.008C70.1116 147.008 64.6028 152.515 64.6028 159.286H68.6028C68.6028 154.726 72.3195 151.008 76.8859 151.008V147.008Z" fill="black" mask="url(#path-1-inside-1)"/>
</g>
<defs>
<clipPath id="clip0">
<rect width="250" height="250" fill="white"/>
</clipPath>
</defs>
</svg>
