<svg width="250" height="250" viewBox="0 0 250 250" fill="none" xmlns="http://www.w3.org/2000/svg">
<mask id="path-1-inside-1" fill="white">
<path fill-rule="evenodd" clip-rule="evenodd" d="M118.867 0.151041C120.909 0.0494792 122.953 0 125 0C127.047 0 129.091 0.0494792 131.133 0.151041C133.177 0.25 135.216 0.401041 137.253 0.601563C139.289 0.802083 141.318 1.05208 143.341 1.35417C145.365 1.65365 147.38 2.0026 149.385 2.40104C151.393 2.80208 153.388 3.25 155.372 3.74479C157.357 4.24219 159.328 4.78906 161.286 5.38281C163.242 5.97656 165.185 6.61719 167.112 7.30729C169.036 7.9974 170.945 8.73177 172.836 9.51562C174.727 10.2969 176.594 11.1276 178.445 12.0026C180.294 12.875 182.12 13.7943 183.924 14.7604C185.729 15.724 187.508 16.7318 189.263 17.7839C191.018 18.8359 192.745 19.9297 194.445 21.0651C196.148 22.2031 197.82 23.3802 199.464 24.599C201.107 25.8177 202.719 27.0755 204.299 28.3724C205.88 29.6719 207.43 31.0078 208.945 32.3802C210.461 33.7552 211.943 35.1641 213.388 36.612C214.836 38.0573 216.245 39.5391 217.62 41.0547C218.992 42.5703 220.328 44.1198 221.625 45.7005C222.924 47.2812 224.182 48.8932 225.401 50.5365C226.62 52.1797 227.797 53.8516 228.935 55.5547C230.07 57.2552 231.164 58.9818 232.216 60.737C233.268 62.4922 234.276 64.2708 235.24 66.0755C236.206 67.8802 237.125 69.7057 237.997 71.5547C238.872 73.4036 239.703 75.2734 240.484 77.1641C241.268 79.0547 242.003 80.9635 242.693 82.888C243.383 84.8151 244.023 86.7578 244.617 88.7135C245.211 90.6719 245.758 92.6432 246.253 94.6276C246.75 96.612 247.198 98.6068 247.599 100.615C247.997 102.62 248.346 104.635 248.646 106.659C248.948 108.682 249.198 110.711 249.398 112.747C249.599 114.784 249.75 116.823 249.849 118.867C249.951 120.909 250 122.953 250 125C250 127.047 249.951 129.091 249.849 131.133C249.75 133.177 249.599 135.216 249.398 137.253C249.198 139.289 248.948 141.318 248.646 143.341C248.346 145.365 247.997 147.38 247.599 149.385C247.198 151.393 246.75 153.388 246.253 155.372C245.758 157.357 245.211 159.328 244.617 161.286C244.023 163.242 243.383 165.185 242.693 167.112C242.003 169.036 241.268 170.945 240.484 172.836C239.703 174.727 238.872 176.594 237.997 178.445C237.125 180.294 236.206 182.12 235.24 183.924C234.276 185.729 233.268 187.508 232.216 189.263C231.164 191.018 230.07 192.745 228.935 194.445C227.797 196.148 226.62 197.82 225.401 199.464C224.182 201.107 222.924 202.719 221.625 204.299C220.328 205.88 218.992 207.43 217.62 208.945C216.245 210.461 214.836 211.943 213.388 213.388C211.943 214.836 210.461 216.245 208.945 217.62C207.43 218.992 205.88 220.328 204.299 221.625C202.719 222.924 201.107 224.182 199.464 225.401C197.82 226.62 196.148 227.797 194.445 228.935C192.745 230.07 191.018 231.164 189.263 232.216C187.508 233.268 185.729 234.276 183.924 235.24C182.12 236.206 180.294 237.125 178.445 237.997C176.594 238.872 174.727 239.703 172.836 240.484C170.945 241.268 169.036 242.003 167.112 242.693C165.185 243.383 163.242 244.023 161.286 244.617C159.328 245.211 157.357 245.758 155.372 246.253C153.388 246.75 151.393 247.198 149.385 247.599C147.38 247.997 145.365 248.346 143.341 248.646C141.318 248.948 139.289 249.198 137.253 249.398C135.216 249.599 133.177 249.75 131.133 249.849C129.091 249.951 127.047 250 125 250C122.953 250 120.909 249.951 118.867 249.849C116.823 249.75 114.784 249.599 112.747 249.398C110.711 249.198 108.682 248.948 106.659 248.646C104.635 248.346 102.62 247.997 100.615 247.599C98.6068 247.198 96.612 246.75 94.6276 246.253C92.6432 245.758 90.6719 245.211 88.7135 244.617C86.7578 244.023 84.8151 243.383 82.888 242.693C80.9635 242.003 79.0547 241.268 77.1641 240.484C75.2734 239.703 73.4036 238.872 71.5547 237.997C69.7057 237.125 67.8802 236.206 66.0755 235.24C64.2708 234.276 62.4922 233.268 60.737 232.216C58.9818 231.164 57.2552 230.07 55.5547 228.935C53.8516 227.797 52.1797 226.62 50.5365 225.401C48.8932 224.182 47.2812 222.924 45.7005 221.625C44.1198 220.328 42.5703 218.992 41.0547 217.62C39.5391 216.245 38.0573 214.836 36.612 213.388C35.1641 211.943 33.7552 210.461 32.3802 208.945C31.0078 207.43 29.6719 205.88 28.3724 204.299C27.0755 202.719 25.8177 201.107 24.599 199.464C23.3802 197.82 22.2031 196.148 21.0651 194.445C19.9297 192.745 18.8359 191.018 17.7839 189.263C16.7318 187.508 15.724 185.729 14.7604 183.924C13.7943 182.12 12.875 180.294 12.0026 178.445C11.1276 176.594 10.2969 174.727 9.51562 172.836C8.73177 170.945 7.9974 169.036 7.30729 167.112C6.61719 165.185 5.97656 163.242 5.38281 161.286C4.78906 159.328 4.24219 157.357 3.7474 155.372C3.25 153.388 2.80208 151.393 2.40104 149.385C2.0026 147.38 1.65365 145.365 1.35417 143.341C1.05208 141.318 0.802083 139.289 0.601563 137.253C0.401041 135.216 0.25 133.177 0.151041 131.133C0.0494792 129.091 0 127.047 0 125C0 122.953 0.0494792 120.909 0.151041 118.867C0.25 116.823 0.401041 114.784 0.601563 112.747C0.802083 110.711 1.05208 108.682 1.35417 106.659C1.65365 104.635 2.0026 102.62 2.40104 100.615C2.80208 98.6068 3.25 96.612 3.7474 94.6276C4.24219 92.6432 4.78906 90.6719 5.38281 88.7135C5.97656 86.7578 6.61719 84.8151 7.30729 82.888C7.9974 80.9635 8.73177 79.0547 9.51562 77.1641C10.2969 75.2734 11.1276 73.4036 12.0026 71.5547C12.875 69.7057 13.7943 67.8802 14.7604 66.0755C15.724 64.2708 16.7318 62.4922 17.7839 60.737C18.8359 58.9818 19.9297 57.2552 21.0651 55.5547C22.2031 53.8516 23.3802 52.1797 24.599 50.5365C25.8177 48.8932 27.0755 47.2812 28.3724 45.7005C29.6719 44.1198 31.0078 42.5703 32.3802 41.0547C33.7552 39.5391 35.1641 38.0573 36.612 36.612C38.0573 35.1641 39.5391 33.7552 41.0547 32.3802C42.5703 31.0078 44.1198 29.6719 45.7005 28.3724C47.2812 27.0755 48.8932 25.8177 50.5365 24.599C52.1797 23.3802 53.8516 22.2031 55.5547 21.0651C57.2552 19.9297 58.9818 18.8359 60.737 17.7839C62.4922 16.7318 64.2708 15.724 66.0755 14.7604C67.8802 13.7943 69.7057 12.875 71.5547 12.0026C73.4036 11.1276 75.2734 10.2969 77.1641 9.51562C79.0547 8.73177 80.9635 7.9974 82.888 7.30729C84.8151 6.61719 86.7578 5.97656 88.7135 5.38281C90.6719 4.78906 92.6432 4.24219 94.6276 3.74479C96.612 3.25 98.6068 2.80208 100.615 2.40104C102.62 2.0026 104.635 1.65365 106.659 1.35417C108.682 1.05208 110.711 0.802083 112.747 0.601563C114.784 0.401041 116.823 0.25 118.867 0.151041ZM110.492 67.2424H121.305C170.148 67.2424 211.409 101.906 211.409 142.93C211.409 169.104 192.825 197.094 166.219 210.998C165.693 211.274 165.117 211.409 164.555 211.409C163.482 211.409 162.43 210.932 161.729 210.047C160.656 208.685 160.698 206.753 161.838 205.448C168.354 197.951 175.367 185.344 175.367 175.375C175.367 148.3 144.213 132.125 114.096 132.125C113.245 132.125 112.396 132.104 111.544 132.076L110.492 132.052V157.354C110.492 158.774 109.664 160.057 108.367 160.641C107.075 161.219 105.555 160.987 104.495 160.042L39.6196 102.375C38.8488 101.69 38.4087 100.711 38.4087 99.6799C38.4087 98.6487 38.8488 97.6695 39.6196 96.9924L104.495 39.3258C105.562 38.3804 107.075 38.1357 108.367 38.7268C109.656 39.3101 110.492 40.594 110.492 42.0133V67.2424Z"/>
</mask>
<path fill-rule="evenodd" clip-rule="evenodd" d="M118.867 0.151041C120.909 0.0494792 122.953 0 125 0C127.047 0 129.091 0.0494792 131.133 0.151041C133.177 0.25 135.216 0.401041 137.253 0.601563C139.289 0.802083 141.318 1.05208 143.341 1.35417C145.365 1.65365 147.38 2.0026 149.385 2.40104C151.393 2.80208 153.388 3.25 155.372 3.74479C157.357 4.24219 159.328 4.78906 161.286 5.38281C163.242 5.97656 165.185 6.61719 167.112 7.30729C169.036 7.9974 170.945 8.73177 172.836 9.51562C174.727 10.2969 176.594 11.1276 178.445 12.0026C180.294 12.875 182.12 13.7943 183.924 14.7604C185.729 15.724 187.508 16.7318 189.263 17.7839C191.018 18.8359 192.745 19.9297 194.445 21.0651C196.148 22.2031 197.82 23.3802 199.464 24.599C201.107 25.8177 202.719 27.0755 204.299 28.3724C205.88 29.6719 207.43 31.0078 208.945 32.3802C210.461 33.7552 211.943 35.1641 213.388 36.612C214.836 38.0573 216.245 39.5391 217.62 41.0547C218.992 42.5703 220.328 44.1198 221.625 45.7005C222.924 47.2812 224.182 48.8932 225.401 50.5365C226.62 52.1797 227.797 53.8516 228.935 55.5547C230.07 57.2552 231.164 58.9818 232.216 60.737C233.268 62.4922 234.276 64.2708 235.24 66.0755C236.206 67.8802 237.125 69.7057 237.997 71.5547C238.872 73.4036 239.703 75.2734 240.484 77.1641C241.268 79.0547 242.003 80.9635 242.693 82.888C243.383 84.8151 244.023 86.7578 244.617 88.7135C245.211 90.6719 245.758 92.6432 246.253 94.6276C246.75 96.612 247.198 98.6068 247.599 100.615C247.997 102.62 248.346 104.635 248.646 106.659C248.948 108.682 249.198 110.711 249.398 112.747C249.599 114.784 249.75 116.823 249.849 118.867C249.951 120.909 250 122.953 250 125C250 127.047 249.951 129.091 249.849 131.133C249.75 133.177 249.599 135.216 249.398 137.253C249.198 139.289 248.948 141.318 248.646 143.341C248.346 145.365 247.997 147.38 247.599 149.385C247.198 151.393 246.75 153.388 246.253 155.372C245.758 157.357 245.211 159.328 244.617 161.286C244.023 163.242 243.383 165.185 242.693 167.112C242.003 169.036 241.268 170.945 240.484 172.836C239.703 174.727 238.872 176.594 237.997 178.445C237.125 180.294 236.206 182.12 235.24 183.924C234.276 185.729 233.268 187.508 232.216 189.263C231.164 191.018 230.07 192.745 228.935 194.445C227.797 196.148 226.62 197.82 225.401 199.464C224.182 201.107 222.924 202.719 221.625 204.299C220.328 205.88 218.992 207.43 217.62 208.945C216.245 210.461 214.836 211.943 213.388 213.388C211.943 214.836 210.461 216.245 208.945 217.62C207.43 218.992 205.88 220.328 204.299 221.625C202.719 222.924 201.107 224.182 199.464 225.401C197.82 226.62 196.148 227.797 194.445 228.935C192.745 230.07 191.018 231.164 189.263 232.216C187.508 233.268 185.729 234.276 183.924 235.24C182.12 236.206 180.294 237.125 178.445 237.997C176.594 238.872 174.727 239.703 172.836 240.484C170.945 241.268 169.036 242.003 167.112 242.693C165.185 243.383 163.242 244.023 161.286 244.617C159.328 245.211 157.357 245.758 155.372 246.253C153.388 246.75 151.393 247.198 149.385 247.599C147.38 247.997 145.365 248.346 143.341 248.646C141.318 248.948 139.289 249.198 137.253 249.398C135.216 249.599 133.177 249.75 131.133 249.849C129.091 249.951 127.047 250 125 250C122.953 250 120.909 249.951 118.867 249.849C116.823 249.75 114.784 249.599 112.747 249.398C110.711 249.198 108.682 248.948 106.659 248.646C104.635 248.346 102.62 247.997 100.615 247.599C98.6068 247.198 96.612 246.75 94.6276 246.253C92.6432 245.758 90.6719 245.211 88.7135 244.617C86.7578 244.023 84.8151 243.383 82.888 242.693C80.9635 242.003 79.0547 241.268 77.1641 240.484C75.2734 239.703 73.4036 238.872 71.5547 237.997C69.7057 237.125 67.8802 236.206 66.0755 235.24C64.2708 234.276 62.4922 233.268 60.737 232.216C58.9818 231.164 57.2552 230.07 55.5547 228.935C53.8516 227.797 52.1797 226.62 50.5365 225.401C48.8932 224.182 47.2812 222.924 45.7005 221.625C44.1198 220.328 42.5703 218.992 41.0547 217.62C39.5391 216.245 38.0573 214.836 36.612 213.388C35.1641 211.943 33.7552 210.461 32.3802 208.945C31.0078 207.43 29.6719 205.88 28.3724 204.299C27.0755 202.719 25.8177 201.107 24.599 199.464C23.3802 197.82 22.2031 196.148 21.0651 194.445C19.9297 192.745 18.8359 191.018 17.7839 189.263C16.7318 187.508 15.724 185.729 14.7604 183.924C13.7943 182.12 12.875 180.294 12.0026 178.445C11.1276 176.594 10.2969 174.727 9.51562 172.836C8.73177 170.945 7.9974 169.036 7.30729 167.112C6.61719 165.185 5.97656 163.242 5.38281 161.286C4.78906 159.328 4.24219 157.357 3.7474 155.372C3.25 153.388 2.80208 151.393 2.40104 149.385C2.0026 147.38 1.65365 145.365 1.35417 143.341C1.05208 141.318 0.802083 139.289 0.601563 137.253C0.401041 135.216 0.25 133.177 0.151041 131.133C0.0494792 129.091 0 127.047 0 125C0 122.953 0.0494792 120.909 0.151041 118.867C0.25 116.823 0.401041 114.784 0.601563 112.747C0.802083 110.711 1.05208 108.682 1.35417 106.659C1.65365 104.635 2.0026 102.62 2.40104 100.615C2.80208 98.6068 3.25 96.612 3.7474 94.6276C4.24219 92.6432 4.78906 90.6719 5.38281 88.7135C5.97656 86.7578 6.61719 84.8151 7.30729 82.888C7.9974 80.9635 8.73177 79.0547 9.51562 77.1641C10.2969 75.2734 11.1276 73.4036 12.0026 71.5547C12.875 69.7057 13.7943 67.8802 14.7604 66.0755C15.724 64.2708 16.7318 62.4922 17.7839 60.737C18.8359 58.9818 19.9297 57.2552 21.0651 55.5547C22.2031 53.8516 23.3802 52.1797 24.599 50.5365C25.8177 48.8932 27.0755 47.2812 28.3724 45.7005C29.6719 44.1198 31.0078 42.5703 32.3802 41.0547C33.7552 39.5391 35.1641 38.0573 36.612 36.612C38.0573 35.1641 39.5391 33.7552 41.0547 32.3802C42.5703 31.0078 44.1198 29.6719 45.7005 28.3724C47.2812 27.0755 48.8932 25.8177 50.5365 24.599C52.1797 23.3802 53.8516 22.2031 55.5547 21.0651C57.2552 19.9297 58.9818 18.8359 60.737 17.7839C62.4922 16.7318 64.2708 15.724 66.0755 14.7604C67.8802 13.7943 69.7057 12.875 71.5547 12.0026C73.4036 11.1276 75.2734 10.2969 77.1641 9.51562C79.0547 8.73177 80.9635 7.9974 82.888 7.30729C84.8151 6.61719 86.7578 5.97656 88.7135 5.38281C90.6719 4.78906 92.6432 4.24219 94.6276 3.74479C96.612 3.25 98.6068 2.80208 100.615 2.40104C102.62 2.0026 104.635 1.65365 106.659 1.35417C108.682 1.05208 110.711 0.802083 112.747 0.601563C114.784 0.401041 116.823 0.25 118.867 0.151041ZM110.492 67.2424H121.305C170.148 67.2424 211.409 101.906 211.409 142.93C211.409 169.104 192.825 197.094 166.219 210.998C165.693 211.274 165.117 211.409 164.555 211.409C163.482 211.409 162.43 210.932 161.729 210.047C160.656 208.685 160.698 206.753 161.838 205.448C168.354 197.951 175.367 185.344 175.367 175.375C175.367 148.3 144.213 132.125 114.096 132.125C113.245 132.125 112.396 132.104 111.544 132.076L110.492 132.052V157.354C110.492 158.774 109.664 160.057 108.367 160.641C107.075 161.219 105.555 160.987 104.495 160.042L39.6196 102.375C38.8488 101.69 38.4087 100.711 38.4087 99.6799C38.4087 98.6487 38.8488 97.6695 39.6196 96.9924L104.495 39.3258C105.562 38.3804 107.075 38.1357 108.367 38.7268C109.656 39.3101 110.492 40.594 110.492 42.0133V67.2424Z" fill="#545454"/>
<path d="M118.867 0.151041L118.964 2.1487L118.967 2.14857L118.867 0.151041ZM131.133 0.151041L131.033 2.14857L131.036 2.1487L131.133 0.151041ZM137.253 0.601563L137.057 2.59194L137.057 2.59194L137.253 0.601563ZM143.341 1.35417L143.046 3.33225L143.048 3.33261L143.341 1.35417ZM149.385 2.40104L149.777 0.439781L149.775 0.439392L149.385 2.40104ZM155.372 3.74479L155.859 1.80481L155.856 1.80421L155.372 3.74479ZM161.286 5.38281L161.867 3.46906L161.867 3.46885L161.286 5.38281ZM167.112 7.30729L167.787 5.42467L167.786 5.42439L167.112 7.30729ZM172.836 9.51562L172.07 11.3631L172.072 11.364L172.836 9.51562ZM178.445 12.0026L177.591 13.8109L177.592 13.8114L178.445 12.0026ZM183.924 14.7604L182.981 16.5236L182.982 16.5247L183.924 14.7604ZM189.263 17.7839L190.291 16.0684L190.291 16.0684L189.263 17.7839ZM194.445 21.0651L195.556 19.4022L195.556 19.4018L194.445 21.0651ZM204.299 28.3724L205.57 26.8274L205.568 26.8262L204.299 28.3724ZM208.945 32.3802L210.289 30.8989L210.288 30.8977L208.945 32.3802ZM213.388 36.612L211.973 38.0249L211.975 38.0275L213.388 36.612ZM217.62 41.0547L219.102 39.7123L219.101 39.7109L217.62 41.0547ZM221.625 45.7005L220.079 46.9691L220.08 46.9706L221.625 45.7005ZM225.401 50.5365L223.795 51.7279L223.795 51.7279L225.401 50.5365ZM228.935 55.5547L230.598 54.4441L230.598 54.4435L228.935 55.5547ZM232.216 60.737L230.501 61.7652L230.501 61.7652L232.216 60.737ZM235.24 66.0755L233.475 67.0175L233.476 67.0195L235.24 66.0755ZM237.997 71.5547L236.189 72.4081L236.19 72.4102L237.997 71.5547ZM240.484 77.1641L238.636 77.9279L238.637 77.93L240.484 77.1641ZM242.693 82.888L244.576 82.2137L244.575 82.2129L242.693 82.888ZM244.617 88.7135L246.531 88.1332L246.531 88.1325L244.617 88.7135ZM246.253 94.6276L244.312 95.1115L244.313 95.1139L246.253 94.6276ZM247.599 100.615L249.561 100.225L249.56 100.223L247.599 100.615ZM248.646 106.659L246.667 106.952L246.668 106.954L248.646 106.659ZM249.398 112.747L247.408 112.943L247.408 112.943L249.398 112.747ZM249.849 118.867L247.851 118.964L247.851 118.967L249.849 118.867ZM249.849 131.133L247.851 131.033L247.851 131.036L249.849 131.133ZM248.646 143.341L246.668 143.046L246.667 143.048L248.646 143.341ZM247.599 149.385L249.56 149.777L249.561 149.775L247.599 149.385ZM246.253 155.372L244.313 154.886L244.312 154.889L246.253 155.372ZM244.617 161.286L246.531 161.867L246.531 161.867L244.617 161.286ZM242.693 167.112L244.575 167.787L244.576 167.786L242.693 167.112ZM240.484 172.836L238.637 172.07L238.636 172.072L240.484 172.836ZM237.997 178.445L236.189 177.591L236.189 177.592L237.997 178.445ZM235.24 183.924L233.476 182.981L233.475 182.983L235.24 183.924ZM232.216 189.263L230.501 188.235L230.501 188.235L232.216 189.263ZM228.935 194.445L230.598 195.556L230.598 195.556L228.935 194.445ZM221.625 204.299L220.08 203.029L220.079 203.031L221.625 204.299ZM217.62 208.945L219.101 210.289L219.102 210.288L217.62 208.945ZM213.388 213.388L211.975 211.973L211.973 211.975L213.388 213.388ZM208.945 217.62L210.288 219.102L210.289 219.101L208.945 217.62ZM204.299 221.625L203.031 220.079L203.029 220.08L204.299 221.625ZM194.445 228.935L195.556 230.598L195.556 230.598L194.445 228.935ZM189.263 232.216L188.235 230.501L188.235 230.501L189.263 232.216ZM183.924 235.24L182.983 233.475L182.981 233.476L183.924 235.24ZM178.445 237.997L177.592 236.189L177.591 236.189L178.445 237.997ZM172.836 240.484L172.072 238.636L172.07 238.637L172.836 240.484ZM167.112 242.693L167.786 244.576L167.787 244.575L167.112 242.693ZM161.286 244.617L161.867 246.531L161.867 246.531L161.286 244.617ZM155.372 246.253L154.889 244.312L154.886 244.313L155.372 246.253ZM149.385 247.599L149.775 249.561L149.777 249.56L149.385 247.599ZM143.341 248.646L143.048 246.667L143.046 246.668L143.341 248.646ZM131.133 249.849L131.036 247.851L131.033 247.851L131.133 249.849ZM118.867 249.849L118.967 247.851L118.964 247.851L118.867 249.849ZM112.747 249.398L112.943 247.408L112.943 247.408L112.747 249.398ZM106.659 248.646L106.954 246.668L106.952 246.667L106.659 248.646ZM100.615 247.599L100.223 249.56L100.225 249.561L100.615 247.599ZM94.6276 246.253L95.1139 244.313L95.1115 244.312L94.6276 246.253ZM88.7135 244.617L88.1325 246.531L88.1332 246.531L88.7135 244.617ZM82.888 242.693L82.2129 244.575L82.2137 244.576L82.888 242.693ZM77.1641 240.484L77.93 238.637L77.9279 238.636L77.1641 240.484ZM71.5547 237.997L72.4102 236.19L72.4081 236.189L71.5547 237.997ZM66.0755 235.24L67.0195 233.476L67.0175 233.475L66.0755 235.24ZM60.737 232.216L61.7652 230.501L61.7652 230.501L60.737 232.216ZM55.5547 228.935L54.4435 230.598L54.4441 230.598L55.5547 228.935ZM50.5365 225.401L51.7279 223.795L51.7279 223.795L50.5365 225.401ZM45.7005 221.625L46.9706 220.08L46.9691 220.079L45.7005 221.625ZM41.0547 217.62L39.7109 219.101L39.7123 219.102L41.0547 217.62ZM36.612 213.388L38.0275 211.975L38.0249 211.973L36.612 213.388ZM32.3802 208.945L30.8977 210.288L30.8989 210.289L32.3802 208.945ZM28.3724 204.299L26.8262 205.568L26.8274 205.57L28.3724 204.299ZM21.0651 194.445L19.4018 195.556L19.4022 195.556L21.0651 194.445ZM17.7839 189.263L16.0684 190.291L16.0684 190.291L17.7839 189.263ZM14.7604 183.924L16.5247 182.982L16.5236 182.981L14.7604 183.924ZM12.0026 178.445L13.8114 177.592L13.8109 177.591L12.0026 178.445ZM9.51562 172.836L11.364 172.072L11.3631 172.07L9.51562 172.836ZM7.30729 167.112L5.42439 167.786L5.42467 167.787L7.30729 167.112ZM5.38281 161.286L3.46885 161.867L3.46906 161.867L5.38281 161.286ZM3.7474 155.372L5.68798 154.889L5.68738 154.886L3.7474 155.372ZM2.40104 149.385L0.439391 149.775L0.439782 149.777L2.40104 149.385ZM1.35417 143.341L3.33262 143.048L3.33224 143.046L1.35417 143.341ZM0.601563 137.253L2.59194 137.057L2.59194 137.057L0.601563 137.253ZM0.151041 131.133L2.1487 131.036L2.14857 131.033L0.151041 131.133ZM0.151041 118.867L2.14857 118.967L2.1487 118.964L0.151041 118.867ZM0.601563 112.747L2.59194 112.943L2.59194 112.943L0.601563 112.747ZM1.35417 106.659L3.33225 106.954L3.33261 106.952L1.35417 106.659ZM2.40104 100.615L0.439781 100.223L0.439391 100.225L2.40104 100.615ZM3.7474 94.6276L5.68738 95.1139L5.68798 95.1115L3.7474 94.6276ZM5.38281 88.7135L3.46906 88.1325L3.46885 88.1332L5.38281 88.7135ZM7.30729 82.888L5.42467 82.2129L5.42438 82.2137L7.30729 82.888ZM9.51562 77.1641L11.3631 77.93L11.364 77.9279L9.51562 77.1641ZM12.0026 71.5547L13.8104 72.4102L13.8114 72.4081L12.0026 71.5547ZM14.7604 66.0755L16.5236 67.0195L16.5247 67.0175L14.7604 66.0755ZM17.7839 60.737L19.4993 61.7652L19.4993 61.7652L17.7839 60.737ZM21.0651 55.5547L19.4022 54.4435L19.4018 54.4441L21.0651 55.5547ZM24.599 50.5365L26.2053 51.7279L26.2054 51.7279L24.599 50.5365ZM28.3724 45.7005L26.8274 44.4304L26.8262 44.432L28.3724 45.7005ZM32.3802 41.0547L30.8989 39.7109L30.8977 39.7123L32.3802 41.0547ZM36.612 36.612L38.0249 38.0275L38.0275 38.0249L36.612 36.612ZM41.0547 32.3802L39.7123 30.8977L39.7109 30.8989L41.0547 32.3802ZM45.7005 28.3724L44.432 26.8262L44.4304 26.8274L45.7005 28.3724ZM50.5365 24.599L51.7279 26.2054L51.7279 26.2053L50.5365 24.599ZM55.5547 21.0651L54.4441 19.4018L54.4435 19.4022L55.5547 21.0651ZM60.737 17.7839L61.7652 19.4993L61.7652 19.4993L60.737 17.7839ZM66.0755 14.7604L67.0175 16.5247L67.0195 16.5236L66.0755 14.7604ZM71.5547 12.0026L72.4081 13.8114L72.4102 13.8104L71.5547 12.0026ZM77.1641 9.51562L77.9279 11.364L77.93 11.3631L77.1641 9.51562ZM82.888 7.30729L82.2137 5.42438L82.2129 5.42467L82.888 7.30729ZM88.7135 5.38281L88.1332 3.46885L88.1325 3.46906L88.7135 5.38281ZM94.6276 3.74479L94.1437 1.80421L94.1413 1.80481L94.6276 3.74479ZM100.615 2.40104L100.225 0.43939L100.223 0.439782L100.615 2.40104ZM106.659 1.35417L106.952 3.33262L106.954 3.33224L106.659 1.35417ZM112.747 0.601563L112.943 2.59194L112.943 2.59194L112.747 0.601563ZM110.492 67.2424H108.492C108.492 68.347 109.387 69.2424 110.492 69.2424V67.2424ZM166.219 210.998L165.292 209.225L165.289 209.227L166.219 210.998ZM161.729 210.047L160.158 211.285L160.161 211.288L161.729 210.047ZM161.838 205.448L163.344 206.764L163.348 206.76L161.838 205.448ZM111.544 132.076L111.611 130.077C111.604 130.077 111.596 130.076 111.589 130.076L111.544 132.076ZM110.492 132.052L110.537 130.053C109.999 130.041 109.478 130.246 109.094 130.622C108.709 130.999 108.492 131.514 108.492 132.052H110.492ZM108.367 160.641L109.184 162.466L109.187 162.465L108.367 160.641ZM104.495 160.042L105.826 158.549L105.823 158.547L104.495 160.042ZM39.6196 102.375L40.9484 100.88L40.948 100.88L39.6196 102.375ZM39.6196 96.9924L40.9395 98.4951L40.9484 98.4872L39.6196 96.9924ZM104.495 39.3258L103.169 37.8283L103.166 37.8309L104.495 39.3258ZM108.367 38.7268L107.535 40.5454L107.542 40.5489L108.367 38.7268ZM125 -2C122.921 -2 120.843 -1.94974 118.768 -1.84649L118.967 2.14857C120.974 2.0487 122.985 2 125 2V-2ZM131.232 -1.84649C129.157 -1.94974 127.079 -2 125 -2V2C127.015 2 129.026 2.0487 131.033 2.14857L131.232 -1.84649ZM137.449 -1.38881C135.38 -1.5925 133.308 -1.74601 131.229 -1.84662L131.036 2.1487C133.046 2.24601 135.052 2.39458 137.057 2.59194L137.449 -1.38881ZM143.636 -0.623911C141.579 -0.931031 139.517 -1.1851 137.449 -1.38881L137.057 2.59194C139.061 2.78926 141.056 3.0352 143.046 3.33224L143.636 -0.623911ZM149.775 0.439392C147.738 0.0345287 145.69 -0.320023 143.634 -0.624281L143.048 3.33261C145.039 3.62731 147.023 3.97068 148.996 4.36269L149.775 0.439392ZM155.856 1.80421C153.841 1.30184 151.816 0.847019 149.777 0.439782L148.994 4.3623C150.97 4.75715 152.935 5.19816 154.889 5.68538L155.856 1.80421ZM161.867 3.46885C159.878 2.8659 157.875 2.31031 155.859 1.80481L154.886 5.68478C156.838 6.17406 158.778 6.71222 160.706 7.29678L161.867 3.46885ZM167.786 5.42439C165.827 4.72289 163.854 4.07203 161.867 3.46906L160.705 7.29656C162.631 7.8811 164.542 8.51148 166.438 9.1902L167.786 5.42439ZM173.602 7.66812C171.68 6.87112 169.74 6.12511 167.787 5.42467L166.437 9.18991C168.333 9.86968 170.211 10.5924 172.07 11.3631L173.602 7.66812ZM179.3 10.1944C177.421 9.30636 175.523 8.46208 173.6 7.66722L172.072 11.364C173.93 12.1317 175.767 12.9488 177.591 13.8109L179.3 10.1944ZM184.868 12.9972C183.034 12.0153 181.179 11.0808 179.299 10.1938L177.592 13.8114C179.41 14.6692 181.205 15.5732 182.981 16.5236L184.868 12.9972ZM190.291 16.0684C188.508 14.9996 186.701 13.9754 184.866 12.9961L182.982 16.5247C184.758 17.4725 186.508 18.464 188.235 19.4993L190.291 16.0684ZM195.556 19.4018C193.829 18.2486 192.075 17.1374 190.291 16.0684L188.235 19.4993C189.962 20.5344 191.661 21.6108 193.335 22.7284L195.556 19.4018ZM200.655 22.9926C198.985 21.7542 197.287 20.5582 195.556 19.4022L193.334 22.728C195.01 23.848 196.655 25.0062 198.272 26.2054L200.655 22.9926ZM205.568 26.8262C203.962 25.5086 202.324 24.2307 200.655 22.9926L198.272 26.2054C199.889 27.4047 201.475 28.6424 203.031 29.9186L205.568 26.8262ZM210.288 30.8977C208.748 29.5035 207.174 28.1468 205.57 26.8274L203.029 29.9174C204.586 31.197 206.111 32.5121 207.603 33.8627L210.288 30.8977ZM214.803 35.199C213.334 33.7265 211.828 32.2949 210.289 30.8989L207.601 33.8615C209.094 35.2155 210.552 36.6016 211.973 38.0249L214.803 35.199ZM219.101 39.7109C217.705 38.1722 216.273 36.6664 214.801 35.1965L211.975 38.0275C213.398 39.4482 214.784 40.906 216.139 42.3985L219.101 39.7109ZM223.171 44.432C221.854 42.826 220.496 41.2519 219.102 39.7123L216.137 42.3971C217.488 43.8887 218.803 45.4136 220.079 46.9691L223.171 44.432ZM227.007 49.345C225.769 47.6756 224.491 46.0374 223.17 44.4304L220.08 46.9706C221.358 48.5251 222.595 50.1108 223.795 51.7279L227.007 49.345ZM230.598 54.4435C229.442 52.7134 228.246 51.0147 227.007 49.345L223.795 51.7279C224.994 53.3446 226.152 54.9897 227.272 56.6658L230.598 54.4435ZM233.932 59.7087C232.863 57.9253 231.751 56.1713 230.598 54.4441L227.272 56.6653C228.389 58.3391 229.466 60.0382 230.501 61.7652L233.932 59.7087ZM237.004 65.1336C236.025 63.2993 235 61.4919 233.932 59.7087L230.501 61.7652C231.536 63.4924 232.528 65.2423 233.475 67.0175L237.004 65.1336ZM239.806 70.7012C238.919 68.8214 237.985 66.9657 237.003 65.1316L233.476 67.0195C234.427 68.7947 235.331 70.5901 236.189 72.4081L239.806 70.7012ZM242.333 76.4003C241.538 74.4773 240.694 72.5769 239.805 70.6992L236.19 72.4102C237.051 74.2304 237.868 76.0696 238.636 77.9279L242.333 76.4003ZM244.575 82.2129C243.875 80.2596 243.129 78.3204 242.332 76.3981L238.637 77.93C239.408 79.789 240.13 81.6674 240.81 83.5631L244.575 82.2129ZM246.531 88.1325C245.928 86.1464 245.277 84.1726 244.576 82.2137L240.81 83.5623C241.489 85.4576 242.119 87.3692 242.703 89.2945L246.531 88.1325ZM248.193 94.1437C247.69 92.1254 247.134 90.1219 246.531 88.1332L242.703 89.2938C243.288 91.2219 243.826 93.161 244.312 95.1115L248.193 94.1437ZM249.56 100.223C249.153 98.184 248.698 96.1577 248.193 94.1413L244.313 95.1139C244.802 97.0663 245.243 99.0295 245.638 101.006L249.56 100.223ZM250.624 106.366C250.32 104.31 249.965 102.262 249.561 100.225L245.637 101.004C246.029 102.977 246.373 104.961 246.667 106.952L250.624 106.366ZM251.389 112.551C251.185 110.482 250.931 108.421 250.624 106.364L246.668 106.954C246.965 108.944 247.211 110.939 247.408 112.943L251.389 112.551ZM251.847 118.77C251.746 116.692 251.592 114.62 251.389 112.551L247.408 112.943C247.605 114.948 247.754 116.954 247.851 118.964L251.847 118.77ZM252 125C252 122.921 251.95 120.843 251.846 118.768L247.851 118.967C247.951 120.974 248 122.985 248 125H252ZM251.846 131.232C251.95 129.157 252 127.079 252 125H248C248 127.015 247.951 129.026 247.851 131.033L251.846 131.232ZM251.389 137.449C251.592 135.38 251.746 133.308 251.847 131.229L247.851 131.036C247.754 133.046 247.605 135.052 247.408 137.057L251.389 137.449ZM250.624 143.636C250.931 141.579 251.185 139.517 251.389 137.449L247.408 137.057C247.211 139.061 246.965 141.056 246.668 143.046L250.624 143.636ZM249.561 149.775C249.965 147.738 250.32 145.69 250.624 143.634L246.667 143.048C246.373 145.039 246.029 147.023 245.637 148.996L249.561 149.775ZM248.193 155.859C248.698 153.842 249.153 151.816 249.56 149.777L245.638 148.994C245.243 150.97 244.802 152.934 244.313 154.886L248.193 155.859ZM246.531 161.867C247.134 159.878 247.69 157.875 248.193 155.856L244.312 154.889C243.826 156.839 243.288 158.778 242.703 160.706L246.531 161.867ZM244.576 167.786C245.277 165.827 245.928 163.854 246.531 161.867L242.703 160.705C242.119 162.631 241.489 164.542 240.81 166.438L244.576 167.786ZM242.332 173.602C243.129 171.68 243.875 169.74 244.575 167.787L240.81 166.437C240.13 168.333 239.408 170.211 238.637 172.07L242.332 173.602ZM239.806 179.3C240.694 177.421 241.538 175.523 242.333 173.6L238.636 172.072C237.868 173.93 237.051 175.767 236.189 177.591L239.806 179.3ZM237.003 184.868C237.985 183.034 238.919 181.179 239.806 179.299L236.189 177.592C235.331 179.41 234.427 181.205 233.476 182.981L237.003 184.868ZM233.932 190.291C235 188.508 236.025 186.701 237.004 184.866L233.475 182.983C232.528 184.758 231.536 186.508 230.501 188.235L233.932 190.291ZM230.598 195.556C231.751 193.829 232.863 192.075 233.932 190.291L230.501 188.235C229.466 189.962 228.389 191.661 227.272 193.335L230.598 195.556ZM227.007 200.655C228.246 198.985 229.442 197.287 230.598 195.556L227.272 193.334C226.152 195.01 224.994 196.655 223.795 198.272L227.007 200.655ZM223.17 205.57C224.491 203.963 225.769 202.324 227.007 200.655L223.795 198.272C222.595 199.889 221.358 201.475 220.08 203.029L223.17 205.57ZM219.102 210.288C220.496 208.748 221.854 207.174 223.171 205.568L220.079 203.031C218.803 204.586 217.488 206.111 216.137 207.603L219.102 210.288ZM214.801 214.803C216.273 213.334 217.705 211.828 219.101 210.289L216.139 207.601C214.784 209.094 213.398 210.552 211.975 211.973L214.801 214.803ZM210.289 219.101C211.828 217.705 213.334 216.273 214.803 214.801L211.973 211.975C210.552 213.398 209.094 214.784 207.601 216.139L210.289 219.101ZM205.568 223.171C207.174 221.854 208.748 220.496 210.288 219.102L207.603 216.137C206.111 217.488 204.586 218.803 203.031 220.079L205.568 223.171ZM200.655 227.007C202.324 225.769 203.963 224.491 205.57 223.17L203.029 220.08C201.475 221.358 199.889 222.595 198.272 223.795L200.655 227.007ZM195.556 230.598C197.287 229.442 198.985 228.246 200.655 227.007L198.272 223.795C196.655 224.994 195.01 226.152 193.334 227.272L195.556 230.598ZM190.291 233.932C192.075 232.863 193.829 231.751 195.556 230.598L193.335 227.272C191.661 228.389 189.962 229.466 188.235 230.501L190.291 233.932ZM184.866 237.004C186.701 236.025 188.508 235 190.291 233.932L188.235 230.501C186.508 231.536 184.758 232.528 182.983 233.475L184.866 237.004ZM179.299 239.806C181.179 238.919 183.034 237.985 184.868 237.003L182.981 233.476C181.205 234.427 179.41 235.331 177.592 236.189L179.299 239.806ZM173.6 242.333C175.523 241.538 177.421 240.694 179.3 239.806L177.591 236.189C175.767 237.051 173.93 237.868 172.072 238.636L173.6 242.333ZM167.787 244.575C169.74 243.875 171.68 243.129 173.602 242.332L172.07 238.637C170.211 239.408 168.333 240.13 166.437 240.81L167.787 244.575ZM161.867 246.531C163.854 245.928 165.827 245.277 167.786 244.576L166.438 240.81C164.542 241.489 162.631 242.119 160.705 242.703L161.867 246.531ZM155.856 248.193C157.875 247.69 159.878 247.134 161.867 246.531L160.706 242.703C158.778 243.288 156.839 243.826 154.889 244.312L155.856 248.193ZM149.777 249.56C151.816 249.153 153.842 248.698 155.859 248.193L154.886 244.313C152.934 244.802 150.97 245.243 148.994 245.638L149.777 249.56ZM143.634 250.624C145.69 250.32 147.738 249.965 149.775 249.561L148.996 245.637C147.023 246.029 145.039 246.373 143.048 246.667L143.634 250.624ZM137.449 251.389C139.517 251.185 141.579 250.931 143.636 250.624L143.046 246.668C141.056 246.965 139.061 247.211 137.057 247.408L137.449 251.389ZM131.229 251.847C133.308 251.746 135.38 251.592 137.449 251.389L137.057 247.408C135.052 247.605 133.046 247.754 131.036 247.851L131.229 251.847ZM125 252C127.079 252 129.157 251.95 131.232 251.846L131.033 247.851C129.026 247.951 127.015 248 125 248V252ZM118.768 251.846C120.843 251.95 122.921 252 125 252V248C122.985 248 120.974 247.951 118.967 247.851L118.768 251.846ZM112.551 251.389C114.62 251.592 116.692 251.746 118.77 251.847L118.964 247.851C116.954 247.754 114.948 247.605 112.943 247.408L112.551 251.389ZM106.364 250.624C108.421 250.931 110.482 251.185 112.551 251.389L112.943 247.408C110.939 247.211 108.944 246.965 106.954 246.668L106.364 250.624ZM100.225 249.561C102.262 249.965 104.31 250.32 106.366 250.624L106.952 246.667C104.961 246.373 102.977 246.029 101.004 245.637L100.225 249.561ZM94.1413 248.193C96.1577 248.698 98.184 249.153 100.223 249.56L101.006 245.638C99.0295 245.243 97.0663 244.802 95.1139 244.313L94.1413 248.193ZM88.1332 246.531C90.1219 247.134 92.1254 247.69 94.1437 248.193L95.1115 244.312C93.161 243.826 91.2219 243.288 89.2938 242.703L88.1332 246.531ZM82.2137 244.576C84.1726 245.277 86.1464 245.928 88.1325 246.531L89.2945 242.703C87.3692 242.119 85.4576 241.489 83.5623 240.81L82.2137 244.576ZM76.3981 242.332C78.3204 243.129 80.2596 243.875 82.2129 244.575L83.5631 240.81C81.6674 240.13 79.789 239.408 77.93 238.637L76.3981 242.332ZM70.6992 239.805C72.5769 240.694 74.4773 241.538 76.4003 242.333L77.9279 238.636C76.0696 237.868 74.2304 237.051 72.4102 236.19L70.6992 239.805ZM65.1316 237.003C66.9657 237.985 68.8214 238.919 70.7012 239.806L72.4081 236.189C70.5901 235.331 68.7947 234.427 67.0195 233.476L65.1316 237.003ZM59.7087 233.932C61.4919 235 63.2993 236.025 65.1336 237.004L67.0175 233.475C65.2423 232.528 63.4924 231.536 61.7652 230.501L59.7087 233.932ZM54.4441 230.598C56.1713 231.751 57.9253 232.863 59.7087 233.932L61.7652 230.501C60.0382 229.466 58.3391 228.389 56.6653 227.272L54.4441 230.598ZM49.345 227.007C51.0147 228.246 52.7134 229.442 54.4435 230.598L56.6658 227.272C54.9897 226.152 53.3446 224.994 51.7279 223.795L49.345 227.007ZM44.4304 223.17C46.0374 224.491 47.6756 225.769 49.345 227.007L51.7279 223.795C50.1108 222.595 48.5251 221.358 46.9706 220.08L44.4304 223.17ZM39.7123 219.102C41.2519 220.496 42.826 221.854 44.432 223.171L46.9691 220.079C45.4136 218.803 43.8887 217.488 42.3971 216.137L39.7123 219.102ZM35.1965 214.801C36.6664 216.273 38.1722 217.705 39.7109 219.101L42.3985 216.139C40.906 214.784 39.4482 213.398 38.0275 211.975L35.1965 214.801ZM30.8989 210.289C32.2949 211.828 33.7265 213.334 35.199 214.803L38.0249 211.973C36.6016 210.552 35.2155 209.094 33.8615 207.601L30.8989 210.289ZM26.8274 205.57C28.1468 207.174 29.5035 208.748 30.8977 210.288L33.8627 207.603C32.5121 206.111 31.197 204.586 29.9174 203.029L26.8274 205.57ZM22.9926 200.655C24.2307 202.324 25.5086 203.962 26.8262 205.568L29.9186 203.031C28.6424 201.475 27.4047 199.889 26.2054 198.272L22.9926 200.655ZM19.4022 195.556C20.5582 197.287 21.7542 198.985 22.9926 200.655L26.2054 198.272C25.0062 196.655 23.848 195.01 22.728 193.334L19.4022 195.556ZM16.0684 190.291C17.1374 192.075 18.2486 193.829 19.4018 195.556L22.7284 193.335C21.6108 191.661 20.5344 189.962 19.4993 188.235L16.0684 190.291ZM12.9961 184.866C13.9754 186.701 14.9996 188.508 16.0684 190.291L19.4993 188.235C18.464 186.508 17.4725 184.758 16.5247 182.982L12.9961 184.866ZM10.1938 179.299C11.0808 181.179 12.0153 183.034 12.9972 184.868L16.5236 182.981C15.5732 181.205 14.6692 179.41 13.8114 177.592L10.1938 179.299ZM7.66722 173.6C8.46208 175.523 9.30636 177.421 10.1944 179.3L13.8109 177.591C12.9488 175.767 12.1317 173.93 11.364 172.072L7.66722 173.6ZM5.42467 167.787C6.12511 169.74 6.87112 171.68 7.66812 173.602L11.3631 172.07C10.5924 170.211 9.86968 168.333 9.18991 166.437L5.42467 167.787ZM3.46906 161.867C4.07203 163.854 4.72289 165.827 5.42439 167.786L9.1902 166.438C8.51148 164.542 7.8811 162.631 7.29656 160.705L3.46906 161.867ZM1.80681 155.856C2.31007 157.875 2.86591 159.878 3.46885 161.867L7.29678 160.706C6.71221 158.778 6.17431 156.839 5.68798 154.889L1.80681 155.856ZM0.439782 149.777C0.847019 151.816 1.302 153.842 1.80741 155.859L5.68738 154.886C5.198 152.934 4.75715 150.97 4.3623 148.994L0.439782 149.777ZM-0.624281 143.634C-0.320023 145.69 0.0345287 147.738 0.439392 149.775L4.36269 148.996C3.97068 147.023 3.62731 145.039 3.33261 143.048L-0.624281 143.634ZM-1.38881 137.449C-1.1851 139.517 -0.931031 141.579 -0.623911 143.636L3.33224 143.046C3.0352 141.056 2.78926 139.061 2.59194 137.057L-1.38881 137.449ZM-1.84662 131.229C-1.74601 133.308 -1.5925 135.38 -1.38881 137.449L2.59194 137.057C2.39458 135.052 2.24601 133.046 2.1487 131.036L-1.84662 131.229ZM-2 125C-2 127.079 -1.94974 129.157 -1.84649 131.232L2.14857 131.033C2.0487 129.026 2 127.015 2 125H-2ZM-1.84649 118.768C-1.94974 120.843 -2 122.921 -2 125H2C2 122.985 2.0487 120.974 2.14857 118.967L-1.84649 118.768ZM-1.38881 112.551C-1.5925 114.62 -1.74601 116.692 -1.84662 118.77L2.1487 118.964C2.24601 116.954 2.39458 114.948 2.59194 112.943L-1.38881 112.551ZM-0.623911 106.364C-0.931031 108.421 -1.18509 110.482 -1.38881 112.551L2.59194 112.943C2.78926 110.939 3.0352 108.944 3.33224 106.954L-0.623911 106.364ZM0.439391 100.225C0.0345286 102.262 -0.320023 104.31 -0.624281 106.366L3.33261 106.952C3.62731 104.961 3.97068 102.977 4.36269 101.004L0.439391 100.225ZM1.80741 94.1413C1.302 96.1577 0.847019 98.184 0.439782 100.223L4.3623 101.006C4.75715 99.0295 5.198 97.0663 5.68738 95.1139L1.80741 94.1413ZM3.46885 88.1332C2.86591 90.1219 2.31007 92.1254 1.80681 94.1437L5.68798 95.1115C6.17431 93.161 6.71221 91.2219 7.29677 89.2938L3.46885 88.1332ZM5.42438 82.2137C4.7229 84.1726 4.07203 86.1464 3.46906 88.1325L7.29656 89.2945C7.8811 87.3692 8.51148 85.4576 9.1902 83.5623L5.42438 82.2137ZM7.66812 76.3981C6.87112 78.3204 6.12511 80.2596 5.42467 82.2129L9.18991 83.5631C9.86969 81.6674 10.5924 79.789 11.3631 77.93L7.66812 76.3981ZM10.1948 70.6992C9.30618 72.5769 8.46182 74.4773 7.66722 76.4003L11.364 77.9279C12.1319 76.0696 12.949 74.2303 13.8104 72.4102L10.1948 70.6992ZM12.9972 65.1316C12.0153 66.9657 11.0808 68.8214 10.1938 70.7012L13.8114 72.4081C14.6692 70.5901 15.5732 68.7947 16.5236 67.0195L12.9972 65.1316ZM16.0684 59.7087C14.9996 61.4919 13.9754 63.2993 12.9961 65.1335L16.5247 67.0175C17.4725 65.2423 18.464 63.4924 19.4993 61.7652L16.0684 59.7087ZM19.4018 54.4441C18.2486 56.1713 17.1374 57.9253 16.0684 59.7087L19.4993 61.7652C20.5344 60.0382 21.6108 58.3391 22.7284 56.6653L19.4018 54.4441ZM22.9926 49.345C21.7542 51.0147 20.5582 52.7134 19.4022 54.4435L22.728 56.6658C23.848 54.9897 25.0062 53.3446 26.2053 51.7279L22.9926 49.345ZM26.8262 44.432C25.5086 46.0379 24.2307 47.6756 22.9926 49.345L26.2054 51.7279C27.4047 50.1108 28.6424 48.5246 29.9186 46.9691L26.8262 44.432ZM30.8977 39.7123C29.5035 41.2519 28.1468 42.8256 26.8274 44.4304L29.9174 46.9706C31.197 45.414 32.5121 43.8887 33.8627 42.3971L30.8977 39.7123ZM35.199 35.1965C33.7265 36.6664 32.2949 38.1722 30.8989 39.7109L33.8615 42.3985C35.2155 40.906 36.6016 39.4482 38.0249 38.0275L35.199 35.1965ZM39.7109 30.8989C38.1722 32.2949 36.6664 33.7265 35.1965 35.199L38.0275 38.0249C39.4482 36.6016 40.906 35.2155 42.3985 33.8615L39.7109 30.8989ZM44.4304 26.8274C42.8256 28.1468 41.2519 29.5035 39.7123 30.8977L42.3971 33.8627C43.8887 32.5121 45.414 31.197 46.9706 29.9174L44.4304 26.8274ZM49.345 22.9926C47.6756 24.2307 46.0379 25.5086 44.432 26.8262L46.9691 29.9186C48.5246 28.6424 50.1108 27.4047 51.7279 26.2054L49.345 22.9926ZM54.4435 19.4022C52.7134 20.5582 51.0147 21.7542 49.345 22.9926L51.7279 26.2053C53.3446 25.0062 54.9897 23.848 56.6658 22.728L54.4435 19.4022ZM59.7087 16.0684C57.9253 17.1374 56.1713 18.2486 54.4441 19.4018L56.6653 22.7284C58.3391 21.6108 60.0382 20.5344 61.7652 19.4993L59.7087 16.0684ZM65.1335 12.9961C63.2993 13.9754 61.4919 14.9996 59.7087 16.0684L61.7652 19.4993C63.4924 18.464 65.2423 17.4725 67.0175 16.5247L65.1335 12.9961ZM70.7012 10.1938C68.8214 11.0808 66.9657 12.0153 65.1316 12.9972L67.0195 16.5236C68.7947 15.5732 70.5901 14.6692 72.4081 13.8114L70.7012 10.1938ZM76.4003 7.66722C74.4773 8.46182 72.5769 9.30618 70.6992 10.1948L72.4102 13.8104C74.2303 12.949 76.0696 12.1319 77.9279 11.364L76.4003 7.66722ZM82.2129 5.42467C80.2596 6.12511 78.3204 6.87112 76.3981 7.66812L77.93 11.3631C79.789 10.5924 81.6674 9.86969 83.5631 9.18991L82.2129 5.42467ZM88.1325 3.46906C86.1464 4.07203 84.1726 4.7229 82.2137 5.42438L83.5623 9.1902C85.4576 8.51148 87.3692 7.8811 89.2945 7.29656L88.1325 3.46906ZM94.1413 1.80481C92.1246 2.31031 90.1219 2.8659 88.1332 3.46885L89.2938 7.29677C91.2218 6.71222 93.1618 6.17406 95.1139 5.68478L94.1413 1.80481ZM100.223 0.439782C98.184 0.847019 96.1585 1.30184 94.1437 1.80421L95.1115 5.68538C97.0655 5.19816 99.0295 4.75715 101.006 4.3623L100.223 0.439782ZM106.366 -0.624281C104.31 -0.320023 102.262 0.0345286 100.225 0.439391L101.004 4.36269C102.977 3.97068 104.961 3.62731 106.952 3.33261L106.366 -0.624281ZM112.551 -1.38881C110.482 -1.18509 108.421 -0.931031 106.364 -0.623911L106.954 3.33224C108.944 3.0352 110.939 2.78926 112.943 2.59194L112.551 -1.38881ZM118.77 -1.84662C116.692 -1.74601 114.62 -1.5925 112.551 -1.38881L112.943 2.59194C114.948 2.39458 116.954 2.24601 118.964 2.1487L118.77 -1.84662ZM121.305 65.2424H110.492V69.2424H121.305V65.2424ZM213.409 142.93C213.409 100.489 170.912 65.2424 121.305 65.2424V69.2424C169.384 69.2424 209.409 103.323 209.409 142.93H213.409ZM167.145 212.77C194.293 198.584 213.409 169.974 213.409 142.93H209.409C209.409 168.235 191.358 195.604 165.292 209.225L167.145 212.77ZM164.555 213.409C165.435 213.409 166.33 213.198 167.148 212.769L165.289 209.227C165.055 209.35 164.799 209.409 164.555 209.409V213.409ZM160.161 211.288C161.255 212.671 162.894 213.409 164.555 213.409V209.409C164.069 209.409 163.604 209.194 163.297 208.806L160.161 211.288ZM160.333 204.132C158.553 206.168 158.495 209.173 160.158 211.285L163.3 208.809C162.818 208.197 162.843 207.338 163.344 206.764L160.333 204.132ZM173.367 175.375C173.367 179.938 171.747 185.271 169.244 190.471C166.753 195.646 163.47 200.522 160.329 204.136L163.348 206.76C166.723 202.877 170.203 197.701 172.848 192.206C175.481 186.736 177.367 180.781 177.367 175.375H173.367ZM114.096 134.125C128.832 134.125 143.761 138.089 154.944 145.279C166.108 152.457 173.367 162.71 173.367 175.375H177.367C177.367 160.965 169.05 149.593 157.107 141.915C145.184 134.249 129.478 130.125 114.096 130.125V134.125ZM111.477 134.075C112.339 134.104 113.213 134.125 114.096 134.125V130.125C113.276 130.125 112.452 130.105 111.611 130.077L111.477 134.075ZM110.447 134.052L111.5 134.075L111.589 130.076L110.537 130.053L110.447 134.052ZM112.492 157.354V132.052H108.492V157.354H112.492ZM109.187 162.465C111.203 161.558 112.492 159.56 112.492 157.354H108.492C108.492 157.988 108.124 158.557 107.547 158.817L109.187 162.465ZM103.163 161.534C104.813 163.006 107.176 163.365 109.184 162.466L107.55 158.815C106.975 159.073 106.296 158.968 105.826 158.549L103.163 161.534ZM38.2909 103.87L103.166 161.537L105.823 158.547L40.9484 100.88L38.2909 103.87ZM36.4087 99.6799C36.4087 101.283 37.0935 102.806 38.2912 103.87L40.948 100.88C40.6041 100.575 40.4087 100.139 40.4087 99.6799H36.4087ZM38.2997 95.4898C37.0924 96.5503 36.4087 98.0789 36.4087 99.6799H40.4087C40.4087 99.2184 40.6052 98.7887 40.9395 98.495L38.2997 95.4898ZM103.166 37.8309L38.2909 95.4976L40.9484 98.4872L105.823 40.8206L103.166 37.8309ZM109.199 36.9082C107.166 35.9776 104.811 36.3747 103.169 37.8283L105.82 40.8232C106.314 40.3861 106.985 40.2937 107.535 40.5454L109.199 36.9082ZM112.492 42.0133C112.492 39.8023 111.191 37.8093 109.192 36.9047L107.542 40.5489C108.122 40.811 108.492 41.3857 108.492 42.0133H112.492ZM112.492 67.2424V42.0133H108.492V67.2424H112.492Z" fill="black" mask="url(#path-1-inside-1)"/>
</svg>
