<svg width="250" height="250" viewBox="0 0 250 250" fill="none" xmlns="http://www.w3.org/2000/svg">
<mask id="path-1-inside-1" fill="white">
<path fill-rule="evenodd" clip-rule="evenodd" d="M250 125C250 55.9766 194.023 0 125 0C55.9766 0 0 55.9766 0 125C0 194.023 55.9766 250 125 250C194.023 250 250 194.023 250 125ZM188.077 78.0449C178.202 64.8444 164.197 54.8678 148.577 49.9303C148.176 49.8288 147.773 49.8808 147.471 50.1308C147.168 50.3834 146.965 50.735 146.965 51.1387L147.067 71.4433C147.067 71.998 147.319 72.5006 147.723 72.7532C163.694 82.5788 181.226 96.4329 181.226 124.748C181.226 155.735 156.036 180.977 124.999 180.977C94.0148 180.977 68.7727 155.784 68.7727 124.748C68.7727 95.1751 86.507 82.0735 102.83 72.4017C103.234 72.1491 103.536 71.6439 103.536 71.0918L103.637 50.9876C103.637 50.584 103.434 50.2324 103.132 49.9798C102.83 49.7298 102.377 49.6777 102.025 49.7793C86.2544 54.6152 72.0982 64.5918 62.1216 77.8418C51.7935 91.5475 46.3508 107.87 46.3508 125.05C46.3508 168.43 81.619 203.699 125.049 203.699C168.429 203.699 203.697 168.43 203.697 125.05C203.648 107.972 198.306 91.6985 188.077 78.0449ZM123.136 33.7574H126.915C132.86 33.7574 137.696 38.5933 137.696 44.5387V135.833C137.696 141.778 132.86 146.614 126.915 146.614H123.136C117.19 146.614 112.354 141.778 112.354 135.833V44.5387C112.354 38.5933 117.19 33.7574 123.136 33.7574Z"/>
</mask>
<path fill-rule="evenodd" clip-rule="evenodd" d="M250 125C250 55.9766 194.023 0 125 0C55.9766 0 0 55.9766 0 125C0 194.023 55.9766 250 125 250C194.023 250 250 194.023 250 125ZM188.077 78.0449C178.202 64.8444 164.197 54.8678 148.577 49.9303C148.176 49.8288 147.773 49.8808 147.471 50.1308C147.168 50.3834 146.965 50.735 146.965 51.1387L147.067 71.4433C147.067 71.998 147.319 72.5006 147.723 72.7532C163.694 82.5788 181.226 96.4329 181.226 124.748C181.226 155.735 156.036 180.977 124.999 180.977C94.0148 180.977 68.7727 155.784 68.7727 124.748C68.7727 95.1751 86.507 82.0735 102.83 72.4017C103.234 72.1491 103.536 71.6439 103.536 71.0918L103.637 50.9876C103.637 50.584 103.434 50.2324 103.132 49.9798C102.83 49.7298 102.377 49.6777 102.025 49.7793C86.2544 54.6152 72.0982 64.5918 62.1216 77.8418C51.7935 91.5475 46.3508 107.87 46.3508 125.05C46.3508 168.43 81.619 203.699 125.049 203.699C168.429 203.699 203.697 168.43 203.697 125.05C203.648 107.972 198.306 91.6985 188.077 78.0449ZM123.136 33.7574H126.915C132.86 33.7574 137.696 38.5933 137.696 44.5387V135.833C137.696 141.778 132.86 146.614 126.915 146.614H123.136C117.19 146.614 112.354 141.778 112.354 135.833V44.5387C112.354 38.5933 117.19 33.7574 123.136 33.7574Z" fill="#545454"/>
<path d="M148.577 49.9303L149.18 48.0233C149.143 48.0116 149.106 48.001 149.068 47.9915L148.577 49.9303ZM188.077 78.0449L186.476 79.2429L186.477 79.2441L188.077 78.0449ZM147.471 50.1308L146.195 48.5901L146.188 48.5965L147.471 50.1308ZM146.965 51.1387L144.965 51.1387L144.965 51.1487L146.965 51.1387ZM147.067 71.4433L149.067 71.4433L149.067 71.4333L147.067 71.4433ZM147.723 72.7532L146.662 74.4486C146.666 74.4513 146.671 74.454 146.675 74.4567L147.723 72.7532ZM102.83 72.4017L103.849 74.1223C103.863 74.1141 103.877 74.1056 103.891 74.0971L102.83 72.4017ZM103.536 71.0918L101.536 71.0817V71.0918H103.536ZM103.637 50.9876L105.637 50.9977V50.9876H103.637ZM103.132 49.9798L104.415 48.4455L104.407 48.439L103.132 49.9798ZM102.025 49.7793L101.47 47.8579C101.46 47.8609 101.449 47.864 101.439 47.8672L102.025 49.7793ZM62.1216 77.8418L63.7189 79.0454L63.7194 79.0448L62.1216 77.8418ZM203.697 125.05L205.697 125.05L205.697 125.044L203.697 125.05ZM125 2C192.919 2 248 57.0811 248 125H252C252 54.872 195.128 -2 125 -2V2ZM2 125C2 57.0811 57.0811 2 125 2V-2C54.872 -2 -2 54.872 -2 125H2ZM125 248C57.0811 248 2 192.919 2 125H-2C-2 195.128 54.872 252 125 252V248ZM248 125C248 192.919 192.919 248 125 248V252C195.128 252 252 195.128 252 125H248ZM147.974 51.8373C163.192 56.6476 176.849 66.3744 186.476 79.2429L189.679 76.8469C179.555 63.3144 165.202 53.088 149.18 48.0233L147.974 51.8373ZM148.746 51.6716C148.434 51.9291 148.133 51.8809 148.086 51.8691L149.068 47.9915C148.22 47.7766 147.111 47.8325 146.195 48.5901L148.746 51.6716ZM148.965 51.1387C148.965 51.4486 148.804 51.623 148.753 51.6651L146.188 48.5965C145.533 49.1439 144.965 50.0214 144.965 51.1387H148.965ZM149.067 71.4333L148.965 51.1287L144.965 51.1487L145.067 71.4533L149.067 71.4333ZM148.784 71.0579C148.93 71.149 149.001 71.2544 149.031 71.3151C149.062 71.3767 149.067 71.4208 149.067 71.4433H145.067C145.067 72.5576 145.572 73.7666 146.662 74.4486L148.784 71.0579ZM183.226 124.748C183.226 95.3439 164.894 80.9685 148.771 71.0498L146.675 74.4567C162.495 84.189 179.226 97.522 179.226 124.748H183.226ZM124.999 182.977C157.141 182.977 183.226 156.838 183.226 124.748H179.226C179.226 154.632 154.93 178.977 124.999 178.977V182.977ZM66.7727 124.748C66.7727 156.89 92.9114 182.977 124.999 182.977V178.977C95.1183 178.977 70.7727 154.679 70.7727 124.748H66.7727ZM101.81 70.681C93.6054 75.5428 84.8241 81.3887 78.1119 89.8709C71.356 98.4082 66.7727 109.515 66.7727 124.748H70.7727C70.7727 110.408 75.0566 100.178 81.2486 92.3531C87.4842 84.4732 95.7315 78.9325 103.849 74.1223L101.81 70.681ZM101.536 71.0918C101.536 71.0039 101.559 70.9364 101.586 70.8882C101.61 70.8444 101.661 70.7741 101.769 70.7063L103.891 74.0971C104.876 73.4805 105.536 72.3362 105.536 71.0918H101.536ZM101.637 50.9775L101.536 71.0817L105.536 71.1019L105.637 50.9977L101.637 50.9775ZM101.849 51.5141C101.799 51.472 101.637 51.2975 101.637 50.9876H105.637C105.637 49.8704 105.07 48.9929 104.415 48.4455L101.849 51.5141ZM102.58 51.7007C102.463 51.7347 102.365 51.7361 102.277 51.722C102.189 51.7077 102.029 51.6629 101.857 51.5206L104.407 48.439C103.496 47.6853 102.323 47.6115 101.47 47.8579L102.58 51.7007ZM63.7194 79.0448C73.4449 66.1282 87.2488 56.4022 102.612 51.6914L101.439 47.8672C85.2601 52.8282 70.7515 63.0554 60.5239 76.6388L63.7194 79.0448ZM48.3508 125.05C48.3508 108.303 53.6532 92.4029 63.7189 79.0454L60.5244 76.6381C49.9338 90.6921 44.3508 107.438 44.3508 125.05H48.3508ZM125.049 201.699C82.7228 201.699 48.3508 167.325 48.3508 125.05H44.3508C44.3508 169.536 80.5153 205.699 125.049 205.699V201.699ZM201.697 125.05C201.697 167.326 167.324 201.699 125.049 201.699V205.699C169.533 205.699 205.697 169.535 205.697 125.05H201.697ZM186.477 79.2441C196.443 92.5464 201.649 108.4 201.697 125.056L205.697 125.044C205.646 107.544 200.17 90.8507 189.678 76.8457L186.477 79.2441ZM126.915 31.7574H123.136V35.7574H126.915V31.7574ZM139.696 44.5387C139.696 37.4887 133.965 31.7574 126.915 31.7574V35.7574C131.755 35.7574 135.696 39.698 135.696 44.5387H139.696ZM139.696 135.833V44.5387H135.696V135.833H139.696ZM126.915 148.614C133.965 148.614 139.696 142.883 139.696 135.833H135.696C135.696 140.674 131.755 144.614 126.915 144.614V148.614ZM123.136 148.614H126.915V144.614H123.136V148.614ZM110.354 135.833C110.354 142.883 116.086 148.614 123.136 148.614V144.614C118.295 144.614 114.354 140.674 114.354 135.833H110.354ZM110.354 44.5387V135.833H114.354V44.5387H110.354ZM123.136 31.7574C116.086 31.7574 110.354 37.4887 110.354 44.5387H114.354C114.354 39.698 118.295 35.7574 123.136 35.7574V31.7574Z" fill="black" mask="url(#path-1-inside-1)"/>
</svg>
