<svg width="250" height="250" viewBox="0 0 250 250" fill="none" xmlns="http://www.w3.org/2000/svg">
<mask id="path-1-inside-1" fill="white">
<path fill-rule="evenodd" clip-rule="evenodd" d="M0 125C0 194.023 55.9766 250 125 250C194.023 250 250 194.023 250 125C250 55.9766 194.023 0 125 0C55.9766 0 0 55.9766 0 125ZM163.607 90.877C154.099 81.3686 144.591 71.8598 135.081 62.3521C129.389 56.6594 119.868 56.5084 114.173 62.1516C99.9148 76.4094 85.657 90.6672 71.3992 104.928C57.8445 118.48 78.7039 139.49 92.2065 125.988C98.0503 120.141 103.894 114.297 109.74 108.454V177.326C109.74 196.422 139.365 196.219 139.365 177.126V108.503L156.798 125.935C170.35 139.49 191.36 118.631 177.858 105.128C173.107 100.378 168.357 95.6275 163.607 90.877Z"/>
</mask>
<path fill-rule="evenodd" clip-rule="evenodd" d="M0 125C0 194.023 55.9766 250 125 250C194.023 250 250 194.023 250 125C250 55.9766 194.023 0 125 0C55.9766 0 0 55.9766 0 125ZM163.607 90.877C154.099 81.3686 144.591 71.8598 135.081 62.3521C129.389 56.6594 119.868 56.5084 114.173 62.1516C99.9148 76.4094 85.657 90.6672 71.3992 104.928C57.8445 118.48 78.7039 139.49 92.2065 125.988C98.0503 120.141 103.894 114.297 109.74 108.454V177.326C109.74 196.422 139.365 196.219 139.365 177.126V108.503L156.798 125.935C170.35 139.49 191.36 118.631 177.858 105.128C173.107 100.378 168.357 95.6275 163.607 90.877Z" fill="#545454"/>
<path d="M135.081 62.3521L133.667 63.7664L133.667 63.7665L135.081 62.3521ZM163.607 90.877L165.021 89.4628L165.021 89.4628L163.607 90.877ZM114.173 62.1516L112.765 60.7309L112.758 60.7374L114.173 62.1516ZM71.3992 104.928L72.8133 106.342L72.8136 106.342L71.3992 104.928ZM92.2065 125.988L93.6207 127.402L93.621 127.401L92.2065 125.988ZM109.74 108.454H111.74C111.74 107.645 111.253 106.916 110.506 106.606C109.759 106.296 108.899 106.467 108.326 107.039L109.74 108.454ZM139.365 108.503L140.78 107.089C140.208 106.517 139.347 106.346 138.6 106.655C137.853 106.965 137.365 107.694 137.365 108.503H139.365ZM156.798 125.935L158.212 124.521L158.212 124.521L156.798 125.935ZM177.858 105.128L179.272 103.714L179.272 103.714L177.858 105.128ZM125 248C57.0811 248 2 192.919 2 125H-2C-2 195.128 54.872 252 125 252V248ZM248 125C248 192.919 192.919 248 125 248V252C195.128 252 252 195.128 252 125H248ZM125 2C192.919 2 248 57.0811 248 125H252C252 54.872 195.128 -2 125 -2V2ZM2 125C2 57.0811 57.0811 2 125 2V-2C54.872 -2 -2 54.872 -2 125H2ZM133.667 63.7665C143.177 73.274 152.685 82.7827 162.193 92.2911L165.021 89.4628C155.513 79.9544 146.005 70.4455 136.496 60.9378L133.667 63.7665ZM115.58 63.5723C120.469 58.7284 128.728 58.8274 133.667 63.7664L136.496 60.9379C130.049 54.4914 119.267 54.2884 112.765 60.7309L115.58 63.5723ZM72.8136 106.342C87.0713 92.0814 101.329 77.8237 115.587 63.5658L112.758 60.7374C98.5006 74.9952 84.2428 89.2531 69.9849 103.514L72.8136 106.342ZM90.7923 124.573C87.8171 127.549 84.5499 128.541 81.5076 128.305C78.4101 128.065 75.3935 126.534 73.0774 124.196C70.7616 121.858 69.2501 118.816 69.0281 115.693C68.81 112.623 69.8231 109.332 72.8133 106.342L69.9851 103.513C66.198 107.3 64.7355 111.717 65.0382 115.976C65.3371 120.182 67.3428 124.09 70.2354 127.01C73.1276 129.931 77.0104 131.968 81.1981 132.293C85.4409 132.622 89.8446 131.178 93.6207 127.402L90.7923 124.573ZM108.326 107.039C102.48 112.883 96.6359 118.727 90.792 124.574L93.621 127.401C99.4646 121.555 105.308 115.712 111.154 109.868L108.326 107.039ZM111.74 177.326V108.454H107.74V177.326H111.74ZM137.365 177.126C137.365 181.333 135.755 184.369 133.427 186.386C131.058 188.438 127.834 189.525 124.539 189.547C121.244 189.57 118.027 188.527 115.667 186.514C113.349 184.538 111.74 181.533 111.74 177.326H107.74C107.74 182.667 109.835 186.798 113.072 189.558C116.266 192.282 120.455 193.575 124.566 193.547C128.678 193.519 132.86 192.168 136.046 189.409C139.272 186.615 141.365 182.465 141.365 177.126H137.365ZM137.365 108.503V177.126H141.365V108.503H137.365ZM158.212 124.521L140.78 107.089L137.951 109.917L155.383 127.35L158.212 124.521ZM176.443 106.542C179.419 109.518 180.411 112.785 180.175 115.827C179.935 118.925 178.404 121.941 176.066 124.257C173.728 126.573 170.686 128.085 167.563 128.307C164.493 128.525 161.202 127.512 158.212 124.521L155.383 127.35C159.17 131.137 163.587 132.599 167.846 132.296C172.052 131.998 175.96 129.992 178.88 127.099C181.801 124.207 183.838 120.324 184.163 116.137C184.492 111.894 183.048 107.49 179.272 103.714L176.443 106.542ZM162.193 92.2911C166.943 97.0417 171.693 101.792 176.443 106.542L179.272 103.714C174.522 98.9638 169.771 94.2134 165.021 89.4628L162.193 92.2911Z" fill="black" mask="url(#path-1-inside-1)"/>
</svg>
